<svg width="385" height="324" viewBox="0 0 385 324" fill="none" xmlns="http://www.w3.org/2000/svg">
<path d="M338.345 189C338.345 169.191 334.444 149.575 326.863 131.274C319.282 112.973 308.171 96.3434 294.164 82.3361C280.157 68.3288 263.527 57.2176 245.226 49.6369C226.925 42.0562 207.309 38.1545 187.5 38.1545C167.691 38.1545 148.075 42.0562 129.774 49.6369C111.473 57.2176 94.8434 68.3288 80.8361 82.3361C66.8288 96.3434 55.7176 112.973 48.1369 131.274C40.5562 149.575 36.6545 169.191 36.6545 189" stroke="#77EFFF" stroke-width="32.691"/>
<path d="M322.307 121.314C307.069 90.9655 282.037 66.6464 251.26 52.2923C220.484 37.9382 185.764 34.3889 152.72 42.2188C119.676 50.0487 90.2402 68.7997 69.1768 95.4373C48.1134 122.075 36.6545 155.041 36.6545 189" stroke="#FF8B8B" stroke-width="32.691"/>
<path d="M273.759 65.2512C251.143 49.4865 224.638 40.2212 197.126 38.462C169.614 36.7027 142.145 42.5167 117.705 55.2724C93.2653 68.0281 72.7882 87.2376 58.4989 110.814C44.2096 134.39 36.6545 161.431 36.6545 189" stroke="#AF9BFF" stroke-width="32.691"/>
<path d="M187.5 38.1545C167.691 38.1545 148.075 42.0562 129.774 49.6369C111.473 57.2176 94.8434 68.3288 80.8361 82.3361C66.8288 96.3434 55.7176 112.973 48.1369 131.274C40.5562 149.575 36.6545 169.191 36.6545 189" stroke="#49EC59" stroke-width="32.691"/>
<path d="M132.94 48.3672C104.584 59.3684 80.2152 78.6848 63.0322 103.782C45.8492 128.879 36.6545 158.584 36.6545 189" stroke="#FC66FF" stroke-width="32.691"/>
<rect x="13" y="227" width="15" height="15" rx="3" fill="#FC66FF"/>
<path d="M33.1186 240V229.818H36.8473C37.5698 229.818 38.1681 229.937 38.642 230.176C39.116 230.411 39.4706 230.731 39.706 231.136C39.9413 231.537 40.0589 231.989 40.0589 232.493C40.0589 232.917 39.9811 233.275 39.8253 233.567C39.6695 233.855 39.4607 234.087 39.1989 234.263C38.9403 234.435 38.6553 234.561 38.3438 234.641V234.74C38.6818 234.757 39.0116 234.866 39.3331 235.068C39.6579 235.267 39.9264 235.55 40.1385 235.918C40.3506 236.286 40.4567 236.734 40.4567 237.261C40.4567 237.781 40.334 238.248 40.0888 238.663C39.8468 239.074 39.4723 239.4 38.9652 239.642C38.4581 239.881 37.8101 240 37.0213 240H33.1186ZM34.6548 238.683H36.8722C37.608 238.683 38.1349 238.54 38.4531 238.255C38.7713 237.97 38.9304 237.614 38.9304 237.186C38.9304 236.865 38.8492 236.57 38.6868 236.301C38.5244 236.033 38.2924 235.819 37.9908 235.66C37.6925 235.501 37.3378 235.421 36.9268 235.421H34.6548V238.683ZM34.6548 234.223H36.7131C37.0578 234.223 37.3677 234.157 37.6428 234.024C37.9212 233.892 38.1416 233.706 38.304 233.467C38.4697 233.225 38.5526 232.94 38.5526 232.612C38.5526 232.191 38.4051 231.838 38.1101 231.553C37.8151 231.268 37.3627 231.126 36.7528 231.126H34.6548V234.223ZM42.1594 240V232.364H43.646V240H42.1594ZM42.9102 231.185C42.6516 231.185 42.4296 231.099 42.244 230.927C42.0617 230.751 41.9705 230.542 41.9705 230.3C41.9705 230.055 42.0617 229.846 42.244 229.674C42.4296 229.498 42.6516 229.411 42.9102 229.411C43.1687 229.411 43.3891 229.498 43.5714 229.674C43.757 229.846 43.8498 230.055 43.8498 230.3C43.8498 230.542 43.757 230.751 43.5714 230.927C43.3891 231.099 43.1687 231.185 42.9102 231.185ZM47.1323 229.818V240H45.6458V229.818H47.1323ZM50.6186 229.818V240H49.1321V229.818H50.6186Z" fill="#292D32" fill-opacity="0.7"/>
<rect x="68" y="227" width="15" height="15" rx="3" fill="#49EC59"/>
<path d="M95.0092 233.035C94.9131 232.733 94.7839 232.463 94.6214 232.224C94.4624 231.982 94.2718 231.777 94.0497 231.608C93.8277 231.436 93.5741 231.305 93.2891 231.215C93.0073 231.126 92.6974 231.081 92.3594 231.081C91.786 231.081 91.2689 231.228 90.8082 231.523C90.3475 231.818 89.983 232.251 89.7145 232.821C89.4493 233.388 89.3168 234.082 89.3168 234.904C89.3168 235.729 89.451 236.427 89.7195 236.997C89.9879 237.567 90.3558 238 90.8232 238.295C91.2905 238.59 91.8224 238.737 92.419 238.737C92.9725 238.737 93.4548 238.625 93.8658 238.399C94.2801 238.174 94.5999 237.856 94.8253 237.445C95.054 237.03 95.1683 236.543 95.1683 235.983L95.5661 236.058H92.6527V234.79H96.6548V235.948C96.6548 236.803 96.4725 237.546 96.108 238.175C95.7467 238.802 95.2462 239.286 94.6065 239.627C93.9702 239.969 93.241 240.139 92.419 240.139C91.4976 240.139 90.6889 239.927 89.9929 239.503C89.3002 239.079 88.7599 238.477 88.3722 237.698C87.9844 236.916 87.7905 235.988 87.7905 234.914C87.7905 234.102 87.9032 233.373 88.1286 232.727C88.3539 232.08 88.6705 231.532 89.0781 231.081C89.4891 230.627 89.9714 230.281 90.5249 230.042C91.0817 229.8 91.6899 229.679 92.3494 229.679C92.8996 229.679 93.4117 229.76 93.8857 229.923C94.3629 230.085 94.7872 230.315 95.1584 230.614C95.5329 230.912 95.8428 231.267 96.0881 231.678C96.3333 232.085 96.4991 232.538 96.5852 233.035H95.0092ZM98.4856 240V232.364H99.9224V233.577H100.002C100.141 233.166 100.386 232.843 100.738 232.607C101.092 232.369 101.493 232.249 101.941 232.249C102.034 232.249 102.143 232.253 102.269 232.259C102.398 232.266 102.499 232.274 102.572 232.284V233.706C102.513 233.689 102.407 233.671 102.254 233.651C102.102 233.628 101.949 233.616 101.797 233.616C101.445 233.616 101.132 233.691 100.857 233.84C100.585 233.986 100.37 234.19 100.211 234.452C100.052 234.71 99.9721 235.005 99.9721 235.337V240H98.4856ZM106.802 240.154C106.086 240.154 105.461 239.99 104.928 239.662C104.394 239.334 103.98 238.875 103.685 238.285C103.39 237.695 103.242 237.005 103.242 236.217C103.242 235.424 103.39 234.732 103.685 234.138C103.98 233.545 104.394 233.085 104.928 232.756C105.461 232.428 106.086 232.264 106.802 232.264C107.518 232.264 108.143 232.428 108.676 232.756C109.21 233.085 109.624 233.545 109.919 234.138C110.214 234.732 110.362 235.424 110.362 236.217C110.362 237.005 110.214 237.695 109.919 238.285C109.624 238.875 109.21 239.334 108.676 239.662C108.143 239.99 107.518 240.154 106.802 240.154ZM106.807 238.906C107.271 238.906 107.655 238.784 107.96 238.538C108.265 238.293 108.491 237.967 108.636 237.559C108.786 237.151 108.86 236.702 108.86 236.212C108.86 235.724 108.786 235.277 108.636 234.869C108.491 234.458 108.265 234.129 107.96 233.88C107.655 233.631 107.271 233.507 106.807 233.507C106.339 233.507 105.952 233.631 105.643 233.88C105.339 234.129 105.112 234.458 104.962 234.869C104.817 235.277 104.744 235.724 104.744 236.212C104.744 236.702 104.817 237.151 104.962 237.559C105.112 237.967 105.339 238.293 105.643 238.538C105.952 238.784 106.339 238.906 106.807 238.906ZM115.237 240.154C114.498 240.154 113.862 239.987 113.328 239.652C112.798 239.314 112.39 238.848 112.105 238.255C111.82 237.662 111.678 236.982 111.678 236.217C111.678 235.441 111.824 234.757 112.115 234.163C112.407 233.567 112.818 233.101 113.348 232.766C113.878 232.432 114.503 232.264 115.222 232.264C115.802 232.264 116.32 232.372 116.774 232.587C117.228 232.799 117.594 233.098 117.872 233.482C118.154 233.867 118.321 234.316 118.374 234.83H116.928C116.848 234.472 116.666 234.163 116.381 233.905C116.099 233.646 115.721 233.517 115.247 233.517C114.833 233.517 114.47 233.626 114.159 233.845C113.85 234.061 113.61 234.369 113.438 234.77C113.265 235.168 113.179 235.638 113.179 236.182C113.179 236.739 113.264 237.219 113.433 237.624C113.602 238.028 113.84 238.341 114.149 238.563C114.46 238.785 114.826 238.896 115.247 238.896C115.529 238.896 115.784 238.845 116.013 238.742C116.245 238.636 116.439 238.485 116.595 238.29C116.754 238.094 116.865 237.859 116.928 237.584H118.374C118.321 238.078 118.161 238.518 117.892 238.906C117.624 239.294 117.264 239.599 116.813 239.821C116.366 240.043 115.841 240.154 115.237 240.154ZM123.255 240.154C122.503 240.154 121.855 239.993 121.311 239.672C120.771 239.347 120.354 238.891 120.059 238.305C119.767 237.715 119.621 237.024 119.621 236.232C119.621 235.449 119.767 234.76 120.059 234.163C120.354 233.567 120.765 233.101 121.292 232.766C121.822 232.432 122.442 232.264 123.151 232.264C123.582 232.264 123.999 232.335 124.404 232.478C124.808 232.621 125.171 232.844 125.493 233.149C125.814 233.454 126.068 233.85 126.253 234.337C126.439 234.821 126.532 235.41 126.532 236.102V236.629H120.461V235.516H125.075C125.075 235.125 124.995 234.778 124.836 234.477C124.677 234.172 124.453 233.931 124.165 233.756C123.88 233.58 123.545 233.492 123.161 233.492C122.743 233.492 122.379 233.595 122.067 233.8C121.759 234.003 121.52 234.268 121.351 234.596C121.185 234.921 121.103 235.274 121.103 235.655V236.525C121.103 237.035 121.192 237.469 121.371 237.827C121.553 238.185 121.807 238.459 122.132 238.648C122.457 238.833 122.836 238.926 123.27 238.926C123.552 238.926 123.809 238.886 124.041 238.807C124.273 238.724 124.473 238.601 124.642 238.439C124.811 238.277 124.941 238.076 125.03 237.837L126.437 238.091C126.324 238.505 126.122 238.868 125.831 239.18C125.542 239.488 125.179 239.728 124.742 239.901C124.308 240.07 123.812 240.154 123.255 240.154ZM128.181 240V232.364H129.618V233.577H129.697C129.836 233.166 130.082 232.843 130.433 232.607C130.788 232.369 131.189 232.249 131.636 232.249C131.729 232.249 131.838 232.253 131.964 232.259C132.094 232.266 132.195 232.274 132.268 232.284V233.706C132.208 233.689 132.102 233.671 131.949 233.651C131.797 233.628 131.644 233.616 131.492 233.616C131.141 233.616 130.827 233.691 130.552 233.84C130.281 233.986 130.065 234.19 129.906 234.452C129.747 234.71 129.667 235.005 129.667 235.337V240H128.181ZM133.554 240V232.364H135.04V240H133.554ZM134.305 231.185C134.046 231.185 133.824 231.099 133.638 230.927C133.456 230.751 133.365 230.542 133.365 230.3C133.365 230.055 133.456 229.846 133.638 229.674C133.824 229.498 134.046 229.411 134.305 229.411C134.563 229.411 134.784 229.498 134.966 229.674C135.152 229.846 135.244 230.055 135.244 230.3C135.244 230.542 135.152 230.751 134.966 230.927C134.784 231.099 134.563 231.185 134.305 231.185ZM140.331 240.154C139.579 240.154 138.931 239.993 138.388 239.672C137.847 239.347 137.43 238.891 137.135 238.305C136.843 237.715 136.697 237.024 136.697 236.232C136.697 235.449 136.843 234.76 137.135 234.163C137.43 233.567 137.841 233.101 138.368 232.766C138.898 232.432 139.518 232.264 140.227 232.264C140.658 232.264 141.076 232.335 141.48 232.478C141.884 232.621 142.247 232.844 142.569 233.149C142.89 233.454 143.144 233.85 143.329 234.337C143.515 234.821 143.608 235.41 143.608 236.102V236.629H137.537V235.516H142.151C142.151 235.125 142.072 234.778 141.912 234.477C141.753 234.172 141.53 233.931 141.241 233.756C140.956 233.58 140.622 233.492 140.237 233.492C139.819 233.492 139.455 233.595 139.143 233.8C138.835 234.003 138.596 234.268 138.427 234.596C138.262 234.921 138.179 235.274 138.179 235.655V236.525C138.179 237.035 138.268 237.469 138.447 237.827C138.63 238.185 138.883 238.459 139.208 238.648C139.533 238.833 139.912 238.926 140.346 238.926C140.628 238.926 140.885 238.886 141.117 238.807C141.349 238.724 141.55 238.601 141.719 238.439C141.888 238.277 142.017 238.076 142.106 237.837L143.513 238.091C143.401 238.505 143.198 238.868 142.907 239.18C142.618 239.488 142.256 239.728 141.818 239.901C141.384 240.07 140.888 240.154 140.331 240.154ZM150.979 234.228L149.632 234.467C149.576 234.294 149.486 234.13 149.364 233.974C149.244 233.819 149.082 233.691 148.876 233.592C148.671 233.492 148.414 233.442 148.106 233.442C147.685 233.442 147.334 233.537 147.052 233.726C146.77 233.911 146.629 234.152 146.629 234.447C146.629 234.702 146.724 234.907 146.913 235.063C147.102 235.219 147.406 235.347 147.827 235.446L149.04 235.724C149.743 235.887 150.267 236.137 150.612 236.475C150.956 236.813 151.129 237.252 151.129 237.793C151.129 238.25 150.996 238.658 150.731 239.016C150.469 239.37 150.103 239.649 149.632 239.851C149.165 240.053 148.623 240.154 148.006 240.154C147.151 240.154 146.454 239.972 145.913 239.607C145.373 239.239 145.042 238.717 144.919 238.041L146.356 237.822C146.445 238.197 146.629 238.48 146.908 238.673C147.186 238.862 147.549 238.956 147.996 238.956C148.484 238.956 148.873 238.855 149.165 238.653C149.456 238.447 149.602 238.197 149.602 237.902C149.602 237.663 149.513 237.463 149.334 237.3C149.158 237.138 148.888 237.015 148.523 236.933L147.231 236.649C146.518 236.487 145.991 236.228 145.65 235.874C145.312 235.519 145.143 235.07 145.143 234.526C145.143 234.076 145.269 233.681 145.521 233.343C145.772 233.005 146.121 232.741 146.565 232.553C147.009 232.36 147.518 232.264 148.091 232.264C148.916 232.264 149.566 232.443 150.04 232.801C150.514 233.156 150.827 233.631 150.979 234.228Z" fill="#292D32" fill-opacity="0.7"/>
<rect x="168" y="227" width="15" height="15" rx="3" fill="#AF9BFF"/>
<path d="M188.119 240V229.818H194.433V231.141H189.655V234.243H193.98V235.56H189.655V240H188.119ZM198.858 240.154C198.143 240.154 197.518 239.99 196.984 239.662C196.451 239.334 196.036 238.875 195.741 238.285C195.446 237.695 195.299 237.005 195.299 236.217C195.299 235.424 195.446 234.732 195.741 234.138C196.036 233.545 196.451 233.085 196.984 232.756C197.518 232.428 198.143 232.264 198.858 232.264C199.574 232.264 200.199 232.428 200.733 232.756C201.266 233.085 201.681 233.545 201.976 234.138C202.271 234.732 202.418 235.424 202.418 236.217C202.418 237.005 202.271 237.695 201.976 238.285C201.681 238.875 201.266 239.334 200.733 239.662C200.199 239.99 199.574 240.154 198.858 240.154ZM198.863 238.906C199.327 238.906 199.712 238.784 200.017 238.538C200.322 238.293 200.547 237.967 200.693 237.559C200.842 237.151 200.917 236.702 200.917 236.212C200.917 235.724 200.842 235.277 200.693 234.869C200.547 234.458 200.322 234.129 200.017 233.88C199.712 233.631 199.327 233.507 198.863 233.507C198.396 233.507 198.008 233.631 197.7 233.88C197.395 234.129 197.168 234.458 197.019 234.869C196.873 235.277 196.8 235.724 196.8 236.212C196.8 236.702 196.873 237.151 197.019 237.559C197.168 237.967 197.395 238.293 197.7 238.538C198.008 238.784 198.396 238.906 198.863 238.906ZM207.294 240.154C206.578 240.154 205.953 239.99 205.42 239.662C204.886 239.334 204.472 238.875 204.177 238.285C203.882 237.695 203.734 237.005 203.734 236.217C203.734 235.424 203.882 234.732 204.177 234.138C204.472 233.545 204.886 233.085 205.42 232.756C205.953 232.428 206.578 232.264 207.294 232.264C208.01 232.264 208.635 232.428 209.168 232.756C209.702 233.085 210.116 233.545 210.411 234.138C210.706 234.732 210.854 235.424 210.854 236.217C210.854 237.005 210.706 237.695 210.411 238.285C210.116 238.875 209.702 239.334 209.168 239.662C208.635 239.99 208.01 240.154 207.294 240.154ZM207.299 238.906C207.763 238.906 208.147 238.784 208.452 238.538C208.757 238.293 208.983 237.967 209.129 237.559C209.278 237.151 209.352 236.702 209.352 236.212C209.352 235.724 209.278 235.277 209.129 234.869C208.983 234.458 208.757 234.129 208.452 233.88C208.147 233.631 207.763 233.507 207.299 233.507C206.832 233.507 206.444 233.631 206.136 233.88C205.831 234.129 205.604 234.458 205.455 234.869C205.309 235.277 205.236 235.724 205.236 236.212C205.236 236.702 205.309 237.151 205.455 237.559C205.604 237.967 205.831 238.293 206.136 238.538C206.444 238.784 206.832 238.906 207.299 238.906ZM215.372 240.149C214.755 240.149 214.205 239.992 213.721 239.677C213.24 239.359 212.863 238.906 212.588 238.32C212.316 237.73 212.18 237.022 212.18 236.197C212.18 235.371 212.317 234.665 212.593 234.079C212.871 233.492 213.252 233.043 213.736 232.732C214.22 232.42 214.768 232.264 215.382 232.264C215.856 232.264 216.237 232.344 216.525 232.503C216.817 232.659 217.042 232.841 217.201 233.05C217.364 233.259 217.49 233.442 217.579 233.602H217.669V229.818H219.155V240H217.703V238.812H217.579C217.49 238.974 217.36 239.16 217.191 239.369C217.026 239.577 216.797 239.76 216.505 239.915C216.213 240.071 215.836 240.149 215.372 240.149ZM215.7 238.881C216.127 238.881 216.489 238.769 216.784 238.543C217.082 238.315 217.307 237.998 217.46 237.594C217.615 237.189 217.693 236.719 217.693 236.182C217.693 235.652 217.617 235.187 217.465 234.79C217.312 234.392 217.088 234.082 216.794 233.86C216.499 233.638 216.134 233.527 215.7 233.527C215.252 233.527 214.879 233.643 214.581 233.875C214.283 234.107 214.057 234.424 213.905 234.825C213.756 235.226 213.681 235.678 213.681 236.182C213.681 236.692 213.758 237.151 213.91 237.559C214.062 237.967 214.288 238.29 214.586 238.528C214.888 238.764 215.259 238.881 215.7 238.881Z" fill="#292D32" fill-opacity="0.7"/>
<rect x="237" y="227" width="15" height="15" rx="3" fill="#FF8B8B"/>
<path d="M264.009 233.035C263.913 232.733 263.784 232.463 263.621 232.224C263.462 231.982 263.272 231.777 263.05 231.608C262.828 231.436 262.574 231.305 262.289 231.215C262.007 231.126 261.697 231.081 261.359 231.081C260.786 231.081 260.269 231.228 259.808 231.523C259.348 231.818 258.983 232.251 258.714 232.821C258.449 233.388 258.317 234.082 258.317 234.904C258.317 235.729 258.451 236.427 258.719 236.997C258.988 237.567 259.356 238 259.823 238.295C260.29 238.59 260.822 238.737 261.419 238.737C261.973 238.737 262.455 238.625 262.866 238.399C263.28 238.174 263.6 237.856 263.825 237.445C264.054 237.03 264.168 236.543 264.168 235.983L264.566 236.058H261.653V234.79H265.655V235.948C265.655 236.803 265.473 237.546 265.108 238.175C264.747 238.802 264.246 239.286 263.607 239.627C262.97 239.969 262.241 240.139 261.419 240.139C260.498 240.139 259.689 239.927 258.993 239.503C258.3 239.079 257.76 238.477 257.372 237.698C256.984 236.916 256.79 235.988 256.79 234.914C256.79 234.102 256.903 233.373 257.129 232.727C257.354 232.08 257.67 231.532 258.078 231.081C258.489 230.627 258.971 230.281 259.525 230.042C260.082 229.8 260.69 229.679 261.349 229.679C261.9 229.679 262.412 229.76 262.886 229.923C263.363 230.085 263.787 230.315 264.158 230.614C264.533 230.912 264.843 231.267 265.088 231.678C265.333 232.085 265.499 232.538 265.585 233.035H264.009ZM269.708 240.169C269.224 240.169 268.787 240.08 268.395 239.901C268.004 239.718 267.694 239.455 267.466 239.11C267.24 238.765 267.128 238.343 267.128 237.842C267.128 237.411 267.211 237.057 267.376 236.778C267.542 236.5 267.766 236.28 268.047 236.117C268.329 235.955 268.644 235.832 268.992 235.749C269.34 235.666 269.695 235.603 270.056 235.56C270.513 235.507 270.885 235.464 271.17 235.431C271.455 235.395 271.662 235.337 271.791 235.257C271.92 235.178 271.985 235.048 271.985 234.869V234.835C271.985 234.4 271.862 234.064 271.617 233.825C271.375 233.587 271.014 233.467 270.533 233.467C270.033 233.467 269.638 233.578 269.35 233.8C269.065 234.019 268.868 234.263 268.758 234.531L267.361 234.213C267.527 233.749 267.769 233.375 268.087 233.089C268.409 232.801 268.778 232.592 269.196 232.463C269.613 232.33 270.053 232.264 270.513 232.264C270.818 232.264 271.141 232.301 271.483 232.374C271.827 232.443 272.149 232.572 272.447 232.761C272.749 232.95 272.996 233.22 273.188 233.572C273.38 233.92 273.476 234.372 273.476 234.929V240H272.025V238.956H271.965C271.869 239.148 271.725 239.337 271.532 239.523C271.34 239.708 271.093 239.862 270.792 239.985C270.49 240.108 270.129 240.169 269.708 240.169ZM270.031 238.976C270.442 238.976 270.793 238.895 271.085 238.732C271.38 238.57 271.604 238.358 271.756 238.096C271.912 237.831 271.99 237.547 271.99 237.246V236.261C271.937 236.314 271.834 236.364 271.682 236.411C271.532 236.454 271.362 236.492 271.17 236.525C270.977 236.555 270.79 236.583 270.608 236.609C270.425 236.633 270.273 236.652 270.15 236.669C269.862 236.705 269.599 236.767 269.36 236.853C269.125 236.939 268.936 237.063 268.793 237.226C268.654 237.385 268.584 237.597 268.584 237.862C268.584 238.23 268.72 238.509 268.992 238.697C269.264 238.883 269.61 238.976 270.031 238.976ZM281.179 234.228L279.831 234.467C279.775 234.294 279.685 234.13 279.563 233.974C279.444 233.819 279.281 233.691 279.076 233.592C278.87 233.492 278.613 233.442 278.305 233.442C277.884 233.442 277.533 233.537 277.251 233.726C276.969 233.911 276.828 234.152 276.828 234.447C276.828 234.702 276.923 234.907 277.112 235.063C277.301 235.219 277.606 235.347 278.027 235.446L279.24 235.724C279.942 235.887 280.466 236.137 280.811 236.475C281.155 236.813 281.328 237.252 281.328 237.793C281.328 238.25 281.195 238.658 280.93 239.016C280.668 239.37 280.302 239.649 279.831 239.851C279.364 240.053 278.822 240.154 278.206 240.154C277.35 240.154 276.653 239.972 276.113 239.607C275.572 239.239 275.241 238.717 275.118 238.041L276.555 237.822C276.645 238.197 276.828 238.48 277.107 238.673C277.385 238.862 277.748 238.956 278.196 238.956C278.683 238.956 279.072 238.855 279.364 238.653C279.656 238.447 279.801 238.197 279.801 237.902C279.801 237.663 279.712 237.463 279.533 237.3C279.357 237.138 279.087 237.015 278.723 236.933L277.43 236.649C276.717 236.487 276.19 236.228 275.849 235.874C275.511 235.519 275.342 235.07 275.342 234.526C275.342 234.076 275.468 233.681 275.72 233.343C275.972 233.005 276.32 232.741 276.764 232.553C277.208 232.36 277.717 232.264 278.29 232.264C279.115 232.264 279.765 232.443 280.239 232.801C280.713 233.156 281.026 233.631 281.179 234.228Z" fill="#292D32" fill-opacity="0.7"/>
<rect x="298" y="227" width="15" height="15" rx="3" fill="#77EFFF"/>
<path d="M318.119 240V229.818H319.655V234.243H324.731V229.818H326.272V240H324.731V235.56H319.655V240H318.119ZM331.607 240.154C330.891 240.154 330.266 239.99 329.732 239.662C329.199 239.334 328.784 238.875 328.489 238.285C328.194 237.695 328.047 237.005 328.047 236.217C328.047 235.424 328.194 234.732 328.489 234.138C328.784 233.545 329.199 233.085 329.732 232.756C330.266 232.428 330.891 232.264 331.607 232.264C332.322 232.264 332.947 232.428 333.481 232.756C334.014 233.085 334.429 233.545 334.724 234.138C335.019 234.732 335.166 235.424 335.166 236.217C335.166 237.005 335.019 237.695 334.724 238.285C334.429 238.875 334.014 239.334 333.481 239.662C332.947 239.99 332.322 240.154 331.607 240.154ZM331.612 238.906C332.076 238.906 332.46 238.784 332.765 238.538C333.07 238.293 333.295 237.967 333.441 237.559C333.59 237.151 333.665 236.702 333.665 236.212C333.665 235.724 333.59 235.277 333.441 234.869C333.295 234.458 333.07 234.129 332.765 233.88C332.46 233.631 332.076 233.507 331.612 233.507C331.144 233.507 330.756 233.631 330.448 233.88C330.143 234.129 329.916 234.458 329.767 234.869C329.621 235.277 329.548 235.724 329.548 236.212C329.548 236.702 329.621 237.151 329.767 237.559C329.916 237.967 330.143 238.293 330.448 238.538C330.756 238.784 331.144 238.906 331.612 238.906ZM341.663 236.833V232.364H343.154V240H341.693V238.678H341.613C341.437 239.085 341.156 239.425 340.768 239.697C340.383 239.965 339.905 240.099 339.331 240.099C338.841 240.099 338.406 239.992 338.029 239.776C337.654 239.558 337.359 239.234 337.144 238.807C336.932 238.379 336.825 237.851 336.825 237.221V232.364H338.312V237.042C338.312 237.562 338.456 237.977 338.744 238.285C339.033 238.593 339.407 238.747 339.868 238.747C340.146 238.747 340.423 238.678 340.698 238.538C340.977 238.399 341.207 238.189 341.389 237.907C341.575 237.625 341.666 237.267 341.663 236.833ZM350.874 234.228L349.527 234.467C349.47 234.294 349.381 234.13 349.258 233.974C349.139 233.819 348.976 233.691 348.771 233.592C348.565 233.492 348.309 233.442 348 233.442C347.579 233.442 347.228 233.537 346.946 233.726C346.665 233.911 346.524 234.152 346.524 234.447C346.524 234.702 346.618 234.907 346.807 235.063C346.996 235.219 347.301 235.347 347.722 235.446L348.935 235.724C349.638 235.887 350.161 236.137 350.506 236.475C350.851 236.813 351.023 237.252 351.023 237.793C351.023 238.25 350.891 238.658 350.625 239.016C350.364 239.37 349.997 239.649 349.527 239.851C349.059 240.053 348.517 240.154 347.901 240.154C347.046 240.154 346.348 239.972 345.808 239.607C345.268 239.239 344.936 238.717 344.814 238.041L346.25 237.822C346.34 238.197 346.524 238.48 346.802 238.673C347.081 238.862 347.444 238.956 347.891 238.956C348.378 238.956 348.768 238.855 349.059 238.653C349.351 238.447 349.497 238.197 349.497 237.902C349.497 237.663 349.407 237.463 349.228 237.3C349.053 237.138 348.783 237.015 348.418 236.933L347.125 236.649C346.413 236.487 345.886 236.228 345.544 235.874C345.206 235.519 345.037 235.07 345.037 234.526C345.037 234.076 345.163 233.681 345.415 233.343C345.667 233.005 346.015 232.741 346.459 232.553C346.903 232.36 347.412 232.264 347.985 232.264C348.811 232.264 349.46 232.443 349.934 232.801C350.408 233.156 350.721 233.631 350.874 234.228ZM352.657 240V232.364H354.144V240H352.657ZM353.408 231.185C353.15 231.185 352.928 231.099 352.742 230.927C352.56 230.751 352.469 230.542 352.469 230.3C352.469 230.055 352.56 229.846 352.742 229.674C352.928 229.498 353.15 229.411 353.408 229.411C353.667 229.411 353.887 229.498 354.069 229.674C354.255 229.846 354.348 230.055 354.348 230.3C354.348 230.542 354.255 230.751 354.069 230.927C353.887 231.099 353.667 231.185 353.408 231.185ZM357.63 235.466V240H356.144V232.364H357.571V233.607H357.665C357.841 233.202 358.116 232.877 358.49 232.632C358.868 232.387 359.344 232.264 359.917 232.264C360.438 232.264 360.893 232.374 361.284 232.592C361.676 232.808 361.979 233.129 362.194 233.557C362.41 233.984 362.517 234.513 362.517 235.143V240H361.031V235.322C361.031 234.768 360.887 234.336 360.598 234.024C360.31 233.709 359.914 233.552 359.41 233.552C359.065 233.552 358.759 233.626 358.49 233.776C358.225 233.925 358.015 234.143 357.859 234.432C357.707 234.717 357.63 235.062 357.63 235.466ZM367.713 243.023C367.106 243.023 366.584 242.943 366.147 242.784C365.712 242.625 365.358 242.415 365.083 242.153C364.808 241.891 364.602 241.604 364.466 241.293L365.744 240.766C365.833 240.911 365.953 241.066 366.102 241.228C366.254 241.394 366.46 241.535 366.718 241.651C366.98 241.767 367.317 241.825 367.728 241.825C368.291 241.825 368.757 241.687 369.125 241.412C369.493 241.14 369.676 240.706 369.676 240.109V238.608H369.582C369.493 238.77 369.363 238.951 369.194 239.15C369.029 239.349 368.8 239.521 368.508 239.667C368.217 239.813 367.837 239.886 367.37 239.886C366.766 239.886 366.223 239.745 365.739 239.463C365.258 239.178 364.877 238.759 364.596 238.205C364.317 237.648 364.178 236.964 364.178 236.152C364.178 235.34 364.315 234.644 364.591 234.064C364.869 233.484 365.25 233.04 365.734 232.732C366.218 232.42 366.766 232.264 367.38 232.264C367.854 232.264 368.236 232.344 368.528 232.503C368.82 232.659 369.047 232.841 369.209 233.05C369.375 233.259 369.502 233.442 369.592 233.602H369.701V232.364H371.158V240.169C371.158 240.825 371.006 241.364 370.701 241.785C370.396 242.206 369.983 242.517 369.463 242.719C368.946 242.922 368.362 243.023 367.713 243.023ZM367.698 238.653C368.125 238.653 368.487 238.553 368.782 238.354C369.08 238.152 369.305 237.864 369.458 237.489C369.614 237.112 369.691 236.659 369.691 236.132C369.691 235.618 369.615 235.166 369.463 234.775C369.31 234.384 369.087 234.079 368.792 233.86C368.497 233.638 368.132 233.527 367.698 233.527C367.25 233.527 366.877 233.643 366.579 233.875C366.281 234.104 366.056 234.415 365.903 234.81C365.754 235.204 365.679 235.645 365.679 236.132C365.679 236.633 365.756 237.072 365.908 237.45C366.06 237.827 366.286 238.122 366.584 238.335C366.886 238.547 367.257 238.653 367.698 238.653Z" fill="#292D32" fill-opacity="0.7"/>
<path opacity="0.5" d="M4.52415 97.1392C3.84138 97.1392 3.23153 97.0215 2.6946 96.7862C2.16098 96.5509 1.7384 96.2244 1.42685 95.8068C1.11861 95.3859 0.952888 94.8987 0.929688 94.3452H2.49077C2.51065 94.6468 2.61174 94.9086 2.79403 95.1307C2.97964 95.3494 3.22159 95.5185 3.51989 95.6378C3.81818 95.7571 4.14962 95.8168 4.5142 95.8168C4.91525 95.8168 5.26989 95.7472 5.57812 95.608C5.88968 95.4687 6.13329 95.2749 6.30895 95.0263C6.48461 94.7744 6.57244 94.4844 6.57244 94.1562C6.57244 93.8149 6.48461 93.5149 6.30895 93.2564C6.1366 92.9946 5.88305 92.7891 5.5483 92.6399C5.21686 92.4908 4.81581 92.4162 4.34517 92.4162H3.48509V91.1634H4.34517C4.72301 91.1634 5.05445 91.0954 5.33949 90.9595C5.62784 90.8236 5.85322 90.6347 6.01562 90.3928C6.17803 90.1475 6.25923 89.8608 6.25923 89.5327C6.25923 89.2178 6.18797 88.9444 6.04545 88.7124C5.90625 88.477 5.70739 88.2931 5.44886 88.1605C5.19366 88.0279 4.89205 87.9616 4.54403 87.9616C4.21259 87.9616 3.9027 88.023 3.61435 88.1456C3.32931 88.2649 3.0973 88.4373 2.91832 88.6626C2.73935 88.8847 2.64323 89.1515 2.62997 89.4631H1.14347C1.16004 88.9129 1.32244 88.429 1.63068 88.0114C1.94223 87.5937 2.35322 87.2673 2.86364 87.032C3.37405 86.7966 3.94081 86.679 4.56392 86.679C5.21686 86.679 5.7803 86.8066 6.25426 87.0618C6.73153 87.3137 7.09943 87.6501 7.35795 88.071C7.61979 88.492 7.74905 88.9527 7.74574 89.4531C7.74905 90.0232 7.58996 90.5071 7.26847 90.9048C6.95028 91.3026 6.52604 91.5694 5.99574 91.7053V91.7848C6.67188 91.8875 7.19555 92.156 7.56676 92.5902C7.94129 93.0244 8.12689 93.563 8.12358 94.206C8.12689 94.7661 7.97112 95.2682 7.65625 95.7124C7.3447 96.1565 6.9188 96.5062 6.37855 96.7614C5.83831 97.0133 5.22017 97.1392 4.52415 97.1392ZM13.1632 97.1392C12.4506 97.1392 11.8209 97.0166 11.274 96.7713C10.7304 96.526 10.3045 96.188 9.99628 95.7571C9.68804 95.3262 9.53558 94.8357 9.53889 94.2855C9.53558 93.8546 9.62341 93.4586 9.80239 93.0973C9.98468 92.7327 10.2316 92.4295 10.5432 92.1875C10.8547 91.9422 11.2027 91.7865 11.5872 91.7202V91.6605C11.0801 91.5379 10.6741 91.2661 10.3691 90.8452C10.0642 90.4242 9.91342 89.9403 9.91673 89.3935C9.91342 88.8731 10.051 88.4091 10.3294 88.0014C10.6111 87.5904 10.9972 87.2673 11.4878 87.032C11.9783 86.7966 12.5368 86.679 13.1632 86.679C13.783 86.679 14.3365 86.7983 14.8237 87.0369C15.3142 87.2723 15.7004 87.5954 15.9821 88.0064C16.2638 88.4141 16.4063 88.8764 16.4096 89.3935C16.4063 89.9403 16.2505 90.4242 15.9423 90.8452C15.6341 91.2661 15.233 91.5379 14.7392 91.6605V91.7202C15.1203 91.7865 15.4634 91.9422 15.7683 92.1875C16.0765 92.4295 16.3218 92.7327 16.5041 93.0973C16.6897 93.4586 16.7842 93.8546 16.7875 94.2855C16.7842 94.8357 16.6284 95.3262 16.3201 95.7571C16.0119 96.188 15.5843 96.526 15.0375 96.7713C14.4939 97.0166 13.8691 97.1392 13.1632 97.1392ZM13.1632 95.8814C13.5841 95.8814 13.9487 95.8118 14.2569 95.6726C14.5652 95.5301 14.8038 95.3329 14.9728 95.081C15.1419 94.8258 15.228 94.5275 15.2314 94.1861C15.228 93.8314 15.1352 93.5182 14.953 93.2464C14.774 92.9747 14.5304 92.7609 14.2221 92.6051C13.9139 92.4493 13.5609 92.3714 13.1632 92.3714C12.7621 92.3714 12.4058 92.4493 12.0943 92.6051C11.7827 92.7609 11.5375 92.9747 11.3585 93.2464C11.1795 93.5182 11.0917 93.8314 11.095 94.1861C11.0917 94.5275 11.1729 94.8258 11.3386 95.081C11.5076 95.3329 11.7479 95.5301 12.0595 95.6726C12.371 95.8118 12.7389 95.8814 13.1632 95.8814ZM13.1632 91.1435C13.5013 91.1435 13.8012 91.0755 14.063 90.9396C14.3249 90.8037 14.5304 90.6148 14.6795 90.3729C14.832 90.1309 14.9099 89.8475 14.9132 89.5227C14.9099 89.2045 14.8336 88.9261 14.6845 88.6875C14.5387 88.4489 14.3348 88.2649 14.073 88.1357C13.8111 88.0031 13.5079 87.9368 13.1632 87.9368C12.8119 87.9368 12.5036 88.0031 12.2385 88.1357C11.9766 88.2649 11.7728 88.4489 11.627 88.6875C11.4811 88.9261 11.4099 89.2045 11.4132 89.5227C11.4099 89.8475 11.4828 90.1309 11.6319 90.3729C11.7811 90.6148 11.9866 90.8037 12.2484 90.9396C12.5136 91.0755 12.8185 91.1435 13.1632 91.1435ZM23.6032 95.0909V94.554C23.6032 94.1695 23.6827 93.8182 23.8418 93.5C24.0042 93.1785 24.2395 92.9216 24.5478 92.7294C24.8593 92.5339 25.2355 92.4361 25.6763 92.4361C26.1271 92.4361 26.5049 92.5322 26.8099 92.7244C27.1148 92.9167 27.3451 93.1735 27.5009 93.495C27.66 93.8165 27.7395 94.1695 27.7395 94.554V95.0909C27.7395 95.4754 27.66 95.8284 27.5009 96.1499C27.3418 96.468 27.1081 96.7249 26.7999 96.9205C26.495 97.1127 26.1205 97.2088 25.6763 97.2088C25.2289 97.2088 24.851 97.1127 24.5428 96.9205C24.2346 96.7249 24.0009 96.468 23.8418 96.1499C23.6827 95.8284 23.6032 95.4754 23.6032 95.0909ZM24.7616 94.554V95.0909C24.7616 95.3759 24.8295 95.6345 24.9654 95.8665C25.1013 96.0985 25.3383 96.2145 25.6763 96.2145C26.0111 96.2145 26.2447 96.0985 26.3773 95.8665C26.5099 95.6345 26.5762 95.3759 26.5762 95.0909V94.554C26.5762 94.2689 26.5116 94.0104 26.3823 93.7784C26.2563 93.5464 26.021 93.4304 25.6763 93.4304C25.3449 93.4304 25.1096 93.5464 24.9704 93.7784C24.8312 94.0104 24.7616 94.2689 24.7616 94.554ZM18.4824 89.2642V88.7273C18.4824 88.3428 18.562 87.9898 18.7211 87.6683C18.8835 87.3468 19.1188 87.09 19.427 86.8977C19.7386 86.7055 20.1148 86.6094 20.5556 86.6094C21.0063 86.6094 21.3842 86.7055 21.6891 86.8977C21.994 87.09 22.2244 87.3468 22.3802 87.6683C22.5359 87.9898 22.6138 88.3428 22.6138 88.7273V89.2642C22.6138 89.6487 22.5343 90.0017 22.3752 90.3232C22.2194 90.6413 21.9874 90.8982 21.6792 91.0938C21.3742 91.286 20.9997 91.3821 20.5556 91.3821C20.1048 91.3821 19.7253 91.286 19.4171 91.0938C19.1122 90.8982 18.8802 90.6413 18.7211 90.3232C18.562 90.0017 18.4824 89.6487 18.4824 89.2642ZM19.6458 88.7273V89.2642C19.6458 89.5492 19.7121 89.8078 19.8447 90.0398C19.9805 90.2718 20.2175 90.3878 20.5556 90.3878C20.887 90.3878 21.119 90.2718 21.2516 90.0398C21.3875 89.8078 21.4554 89.5492 21.4554 89.2642V88.7273C21.4554 88.4422 21.3908 88.1837 21.2616 87.9517C21.1323 87.7197 20.897 87.6037 20.5556 87.6037C20.2242 87.6037 19.9888 87.7197 19.8496 87.9517C19.7137 88.1837 19.6458 88.4422 19.6458 88.7273ZM18.9547 97L25.9547 86.8182H27.1429L20.1429 97H18.9547Z" fill="#292D32"/>
<path opacity="0.5" d="M139.842 3.81818V14H138.301V5.35938H138.241L135.805 6.95028V5.47869L138.346 3.81818H139.842ZM142.317 14V12.8864L145.762 9.31676C146.13 8.92898 146.433 8.58925 146.672 8.29759C146.914 8.0026 147.094 7.72254 147.214 7.45739C147.333 7.19223 147.393 6.91051 147.393 6.61222C147.393 6.27415 147.313 5.98248 147.154 5.73722C146.995 5.48864 146.778 5.29806 146.503 5.16548C146.228 5.02959 145.918 4.96165 145.573 4.96165C145.208 4.96165 144.89 5.03622 144.618 5.18537C144.347 5.33452 144.138 5.54498 143.992 5.81676C143.846 6.08854 143.773 6.40672 143.773 6.77131H142.307C142.307 6.15151 142.449 5.60961 142.734 5.1456C143.019 4.68158 143.41 4.32197 143.907 4.06676C144.405 3.80824 144.97 3.67898 145.603 3.67898C146.242 3.67898 146.806 3.80658 147.293 4.06179C147.784 4.31368 148.166 4.65838 148.442 5.09588C148.717 5.53007 148.854 6.0206 148.854 6.56747C148.854 6.94531 148.783 7.31487 148.64 7.67614C148.501 8.0374 148.258 8.4401 147.91 8.88423C147.562 9.32505 147.078 9.86032 146.458 10.4901L144.434 12.608V12.6825H149.018V14H142.317ZM155.937 12.0909V11.554C155.937 11.1695 156.017 10.8182 156.176 10.5C156.338 10.1785 156.574 9.92164 156.882 9.7294C157.193 9.53385 157.569 9.43608 158.01 9.43608C158.461 9.43608 158.839 9.5322 159.144 9.72443C159.449 9.91667 159.679 10.1735 159.835 10.495C159.994 10.8165 160.074 11.1695 160.074 11.554V12.0909C160.074 12.4754 159.994 12.8284 159.835 13.1499C159.676 13.468 159.442 13.7249 159.134 13.9205C158.829 14.1127 158.454 14.2088 158.01 14.2088C157.563 14.2088 157.185 14.1127 156.877 13.9205C156.569 13.7249 156.335 13.468 156.176 13.1499C156.017 12.8284 155.937 12.4754 155.937 12.0909ZM157.096 11.554V12.0909C157.096 12.3759 157.163 12.6345 157.299 12.8665C157.435 13.0985 157.672 13.2145 158.01 13.2145C158.345 13.2145 158.579 13.0985 158.711 12.8665C158.844 12.6345 158.91 12.3759 158.91 12.0909V11.554C158.91 11.2689 158.846 11.0104 158.716 10.7784C158.59 10.5464 158.355 10.4304 158.01 10.4304C157.679 10.4304 157.444 10.5464 157.304 10.7784C157.165 11.0104 157.096 11.2689 157.096 11.554ZM150.816 6.2642V5.72727C150.816 5.3428 150.896 4.98982 151.055 4.66832C151.217 4.34683 151.453 4.08996 151.761 3.89773C152.073 3.70549 152.449 3.60938 152.89 3.60938C153.34 3.60938 153.718 3.70549 154.023 3.89773C154.328 4.08996 154.558 4.34683 154.714 4.66832C154.87 4.98982 154.948 5.3428 154.948 5.72727V6.2642C154.948 6.64867 154.868 7.00166 154.709 7.32315C154.553 7.64134 154.321 7.8982 154.013 8.09375C153.708 8.28598 153.334 8.3821 152.89 8.3821C152.439 8.3821 152.059 8.28598 151.751 8.09375C151.446 7.8982 151.214 7.64134 151.055 7.32315C150.896 7.00166 150.816 6.64867 150.816 6.2642ZM151.98 5.72727V6.2642C151.98 6.54924 152.046 6.80776 152.179 7.03977C152.315 7.27178 152.552 7.38778 152.89 7.38778C153.221 7.38778 153.453 7.27178 153.586 7.03977C153.721 6.80776 153.789 6.54924 153.789 6.2642V5.72727C153.789 5.44223 153.725 5.18371 153.596 4.9517C153.466 4.7197 153.231 4.60369 152.89 4.60369C152.558 4.60369 152.323 4.7197 152.184 4.9517C152.048 5.18371 151.98 5.44223 151.98 5.72727ZM151.289 14L158.289 3.81818H159.477L152.477 14H151.289Z" fill="#292D32"/>
<path opacity="0.5" d="M234.842 5.81818V16H233.301V7.35938H233.241L230.805 8.95028V7.47869L233.346 5.81818H234.842ZM240.757 16.1392C240.044 16.1392 239.415 16.0166 238.868 15.7713C238.324 15.526 237.898 15.188 237.59 14.7571C237.282 14.3262 237.129 13.8357 237.133 13.2855C237.129 12.8546 237.217 12.4586 237.396 12.0973C237.578 11.7327 237.825 11.4295 238.137 11.1875C238.448 10.9422 238.796 10.7865 239.181 10.7202V10.6605C238.674 10.5379 238.268 10.2661 237.963 9.84517C237.658 9.42424 237.507 8.94034 237.51 8.39347C237.507 7.87311 237.645 7.40909 237.923 7.00142C238.205 6.59044 238.591 6.26728 239.082 6.03196C239.572 5.79664 240.131 5.67898 240.757 5.67898C241.377 5.67898 241.93 5.7983 242.417 6.03693C242.908 6.27225 243.294 6.59541 243.576 7.00639C243.858 7.41406 244 7.87642 244.003 8.39347C244 8.94034 243.844 9.42424 243.536 9.84517C243.228 10.2661 242.827 10.5379 242.333 10.6605V10.7202C242.714 10.7865 243.057 10.9422 243.362 11.1875C243.67 11.4295 243.916 11.7327 244.098 12.0973C244.283 12.4586 244.378 12.8546 244.381 13.2855C244.378 13.8357 244.222 14.3262 243.914 14.7571C243.606 15.188 243.178 15.526 242.631 15.7713C242.088 16.0166 241.463 16.1392 240.757 16.1392ZM240.757 14.8814C241.178 14.8814 241.542 14.8118 241.851 14.6726C242.159 14.5301 242.398 14.3329 242.567 14.081C242.736 13.8258 242.822 13.5275 242.825 13.1861C242.822 12.8314 242.729 12.5182 242.547 12.2464C242.368 11.9747 242.124 11.7609 241.816 11.6051C241.508 11.4493 241.155 11.3714 240.757 11.3714C240.356 11.3714 240 11.4493 239.688 11.6051C239.376 11.7609 239.131 11.9747 238.952 12.2464C238.773 12.5182 238.685 12.8314 238.689 13.1861C238.685 13.5275 238.767 13.8258 238.932 14.081C239.101 14.3329 239.342 14.5301 239.653 14.6726C239.965 14.8118 240.333 14.8814 240.757 14.8814ZM240.757 10.1435C241.095 10.1435 241.395 10.0755 241.657 9.93963C241.919 9.80374 242.124 9.61482 242.273 9.37287C242.426 9.13092 242.504 8.84754 242.507 8.52273C242.504 8.20455 242.427 7.92614 242.278 7.6875C242.132 7.44886 241.929 7.26491 241.667 7.13565C241.405 7.00308 241.102 6.93679 240.757 6.93679C240.406 6.93679 240.097 7.00308 239.832 7.13565C239.57 7.26491 239.367 7.44886 239.221 7.6875C239.075 7.92614 239.004 8.20455 239.007 8.52273C239.004 8.84754 239.077 9.13092 239.226 9.37287C239.375 9.61482 239.58 9.80374 239.842 9.93963C240.107 10.0755 240.412 10.1435 240.757 10.1435ZM251.197 14.0909V13.554C251.197 13.1695 251.276 12.8182 251.436 12.5C251.598 12.1785 251.833 11.9216 252.142 11.7294C252.453 11.5339 252.829 11.4361 253.27 11.4361C253.721 11.4361 254.099 11.5322 254.404 11.7244C254.709 11.9167 254.939 12.1735 255.095 12.495C255.254 12.8165 255.333 13.1695 255.333 13.554V14.0909C255.333 14.4754 255.254 14.8284 255.095 15.1499C254.936 15.468 254.702 15.7249 254.394 15.9205C254.089 16.1127 253.714 16.2088 253.27 16.2088C252.823 16.2088 252.445 16.1127 252.137 15.9205C251.828 15.7249 251.595 15.468 251.436 15.1499C251.276 14.8284 251.197 14.4754 251.197 14.0909ZM252.355 13.554V14.0909C252.355 14.3759 252.423 14.6345 252.559 14.8665C252.695 15.0985 252.932 15.2145 253.27 15.2145C253.605 15.2145 253.838 15.0985 253.971 14.8665C254.104 14.6345 254.17 14.3759 254.17 14.0909V13.554C254.17 13.2689 254.105 13.0104 253.976 12.7784C253.85 12.5464 253.615 12.4304 253.27 12.4304C252.939 12.4304 252.703 12.5464 252.564 12.7784C252.425 13.0104 252.355 13.2689 252.355 13.554ZM246.076 8.2642V7.72727C246.076 7.3428 246.156 6.98982 246.315 6.66832C246.477 6.34683 246.713 6.08996 247.021 5.89773C247.332 5.70549 247.709 5.60938 248.149 5.60938C248.6 5.60938 248.978 5.70549 249.283 5.89773C249.588 6.08996 249.818 6.34683 249.974 6.66832C250.13 6.98982 250.208 7.3428 250.208 7.72727V8.2642C250.208 8.64867 250.128 9.00166 249.969 9.32315C249.813 9.64134 249.581 9.8982 249.273 10.0938C248.968 10.286 248.593 10.3821 248.149 10.3821C247.699 10.3821 247.319 10.286 247.011 10.0938C246.706 9.8982 246.474 9.64134 246.315 9.32315C246.156 9.00166 246.076 8.64867 246.076 8.2642ZM247.24 7.72727V8.2642C247.24 8.54924 247.306 8.80776 247.438 9.03977C247.574 9.27178 247.811 9.38778 248.149 9.38778C248.481 9.38778 248.713 9.27178 248.845 9.03977C248.981 8.80776 249.049 8.54924 249.049 8.2642V7.72727C249.049 7.44223 248.985 7.18371 248.855 6.9517C248.726 6.7197 248.491 6.60369 248.149 6.60369C247.818 6.60369 247.583 6.7197 247.443 6.9517C247.307 7.18371 247.24 7.44223 247.24 7.72727ZM246.548 16L253.548 5.81818H254.737L247.737 16H246.548Z" fill="#292D32"/>
<path opacity="0.5" d="M321.842 57.8182V68H320.301V59.3594H320.241L317.805 60.9503V59.4787L320.346 57.8182H321.842ZM327.871 68.1392C327.417 68.1326 326.97 68.0497 326.529 67.8906C326.091 67.7315 325.694 67.4664 325.336 67.0952C324.978 66.724 324.691 66.2251 324.476 65.5987C324.264 64.9723 324.157 64.1901 324.157 63.2521C324.157 62.3639 324.245 61.575 324.421 60.8857C324.6 60.1963 324.857 59.6146 325.192 59.1406C325.526 58.6634 325.931 58.3004 326.405 58.0518C326.879 57.8033 327.411 57.679 328.001 57.679C328.607 57.679 329.146 57.7983 329.616 58.0369C330.087 58.2756 330.468 58.6054 330.76 59.0263C331.055 59.4472 331.242 59.9261 331.322 60.4631H329.805C329.702 60.0388 329.499 59.6925 329.194 59.424C328.889 59.1555 328.491 59.0213 328.001 59.0213C327.255 59.0213 326.673 59.3461 326.256 59.9957C325.841 60.6454 325.632 61.5485 325.629 62.7053H325.704C325.879 62.4169 326.095 62.1716 326.35 61.9695C326.608 61.764 326.897 61.6065 327.215 61.4972C327.537 61.3845 327.875 61.3281 328.229 61.3281C328.819 61.3281 329.353 61.4723 329.83 61.7607C330.311 62.0457 330.693 62.4401 330.979 62.9439C331.264 63.4477 331.406 64.0244 331.406 64.674C331.406 65.3236 331.259 65.9119 330.964 66.4389C330.672 66.9659 330.261 67.3835 329.731 67.6918C329.2 67.9967 328.581 68.1458 327.871 68.1392ZM327.866 66.8466C328.257 66.8466 328.607 66.7505 328.915 66.5582C329.224 66.366 329.467 66.1075 329.646 65.7827C329.825 65.4579 329.915 65.0949 329.915 64.6939C329.915 64.3028 329.827 63.9465 329.651 63.625C329.479 63.3035 329.24 63.0483 328.935 62.8594C328.634 62.6705 328.289 62.576 327.901 62.576C327.606 62.576 327.333 62.6323 327.081 62.745C326.832 62.8577 326.613 63.0135 326.425 63.2124C326.236 63.4112 326.086 63.6399 325.977 63.8984C325.871 64.1536 325.818 64.4238 325.818 64.7088C325.818 65.09 325.906 65.4429 326.082 65.7678C326.26 66.0926 326.504 66.3544 326.812 66.5533C327.124 66.7488 327.475 66.8466 327.866 66.8466ZM338.252 66.0909V65.554C338.252 65.1695 338.331 64.8182 338.49 64.5C338.653 64.1785 338.888 63.9216 339.196 63.7294C339.508 63.5339 339.884 63.4361 340.325 63.4361C340.776 63.4361 341.153 63.5322 341.458 63.7244C341.763 63.9167 341.994 64.1735 342.149 64.495C342.308 64.8165 342.388 65.1695 342.388 65.554V66.0909C342.388 66.4754 342.308 66.8284 342.149 67.1499C341.99 67.468 341.757 67.7249 341.448 67.9205C341.143 68.1127 340.769 68.2088 340.325 68.2088C339.877 68.2088 339.499 68.1127 339.191 67.9205C338.883 67.7249 338.649 67.468 338.49 67.1499C338.331 66.8284 338.252 66.4754 338.252 66.0909ZM339.41 65.554V66.0909C339.41 66.3759 339.478 66.6345 339.614 66.8665C339.75 67.0985 339.987 67.2145 340.325 67.2145C340.66 67.2145 340.893 67.0985 341.026 66.8665C341.158 66.6345 341.225 66.3759 341.225 66.0909V65.554C341.225 65.2689 341.16 65.0104 341.031 64.7784C340.905 64.5464 340.669 64.4304 340.325 64.4304C339.993 64.4304 339.758 64.5464 339.619 64.7784C339.48 65.0104 339.41 65.2689 339.41 65.554ZM333.131 60.2642V59.7273C333.131 59.3428 333.21 58.9898 333.37 58.6683C333.532 58.3468 333.767 58.09 334.075 57.8977C334.387 57.7055 334.763 57.6094 335.204 57.6094C335.655 57.6094 336.033 57.7055 336.338 57.8977C336.642 58.09 336.873 58.3468 337.029 58.6683C337.184 58.9898 337.262 59.3428 337.262 59.7273V60.2642C337.262 60.6487 337.183 61.0017 337.024 61.3232C336.868 61.6413 336.636 61.8982 336.328 62.0938C336.023 62.286 335.648 62.3821 335.204 62.3821C334.753 62.3821 334.374 62.286 334.066 62.0938C333.761 61.8982 333.529 61.6413 333.37 61.3232C333.21 61.0017 333.131 60.6487 333.131 60.2642ZM334.294 59.7273V60.2642C334.294 60.5492 334.361 60.8078 334.493 61.0398C334.629 61.2718 334.866 61.3878 335.204 61.3878C335.535 61.3878 335.767 61.2718 335.9 61.0398C336.036 60.8078 336.104 60.5492 336.104 60.2642V59.7273C336.104 59.4422 336.039 59.1837 335.91 58.9517C335.781 58.7197 335.545 58.6037 335.204 58.6037C334.873 58.6037 334.637 58.7197 334.498 58.9517C334.362 59.1837 334.294 59.4422 334.294 59.7273ZM333.603 68L340.603 57.8182H341.791L334.791 68H333.603Z" fill="#292D32"/>
<path opacity="0.5" d="M362.842 142.818V153H361.301V144.359H361.241L358.805 145.95V144.479L361.346 142.818H362.842ZM368.871 153.139C368.417 153.133 367.97 153.05 367.529 152.891C367.091 152.732 366.694 152.466 366.336 152.095C365.978 151.724 365.691 151.225 365.476 150.599C365.264 149.972 365.157 149.19 365.157 148.252C365.157 147.364 365.245 146.575 365.421 145.886C365.6 145.196 365.857 144.615 366.192 144.141C366.526 143.663 366.931 143.3 367.405 143.052C367.879 142.803 368.411 142.679 369.001 142.679C369.607 142.679 370.146 142.798 370.616 143.037C371.087 143.276 371.468 143.605 371.76 144.026C372.055 144.447 372.242 144.926 372.322 145.463H370.805C370.702 145.039 370.499 144.692 370.194 144.424C369.889 144.156 369.491 144.021 369.001 144.021C368.255 144.021 367.673 144.346 367.256 144.996C366.841 145.645 366.632 146.549 366.629 147.705H366.704C366.879 147.417 367.095 147.172 367.35 146.969C367.608 146.764 367.897 146.607 368.215 146.497C368.537 146.384 368.875 146.328 369.229 146.328C369.819 146.328 370.353 146.472 370.83 146.761C371.311 147.046 371.693 147.44 371.979 147.944C372.264 148.448 372.406 149.024 372.406 149.674C372.406 150.324 372.259 150.912 371.964 151.439C371.672 151.966 371.261 152.384 370.731 152.692C370.2 152.997 369.581 153.146 368.871 153.139ZM368.866 151.847C369.257 151.847 369.607 151.75 369.915 151.558C370.224 151.366 370.467 151.107 370.646 150.783C370.825 150.458 370.915 150.095 370.915 149.694C370.915 149.303 370.827 148.946 370.651 148.625C370.479 148.304 370.24 148.048 369.935 147.859C369.634 147.67 369.289 147.576 368.901 147.576C368.606 147.576 368.333 147.632 368.081 147.745C367.832 147.858 367.613 148.013 367.425 148.212C367.236 148.411 367.086 148.64 366.977 148.898C366.871 149.154 366.818 149.424 366.818 149.709C366.818 150.09 366.906 150.443 367.082 150.768C367.26 151.093 367.504 151.354 367.812 151.553C368.124 151.749 368.475 151.847 368.866 151.847ZM379.252 151.091V150.554C379.252 150.17 379.331 149.818 379.49 149.5C379.653 149.179 379.888 148.922 380.196 148.729C380.508 148.534 380.884 148.436 381.325 148.436C381.776 148.436 382.153 148.532 382.458 148.724C382.763 148.917 382.994 149.174 383.149 149.495C383.308 149.817 383.388 150.17 383.388 150.554V151.091C383.388 151.475 383.308 151.828 383.149 152.15C382.99 152.468 382.757 152.725 382.448 152.92C382.143 153.113 381.769 153.209 381.325 153.209C380.877 153.209 380.499 153.113 380.191 152.92C379.883 152.725 379.649 152.468 379.49 152.15C379.331 151.828 379.252 151.475 379.252 151.091ZM380.41 150.554V151.091C380.41 151.376 380.478 151.634 380.614 151.866C380.75 152.098 380.987 152.214 381.325 152.214C381.66 152.214 381.893 152.098 382.026 151.866C382.158 151.634 382.225 151.376 382.225 151.091V150.554C382.225 150.269 382.16 150.01 382.031 149.778C381.905 149.546 381.669 149.43 381.325 149.43C380.993 149.43 380.758 149.546 380.619 149.778C380.48 150.01 380.41 150.269 380.41 150.554ZM374.131 145.264V144.727C374.131 144.343 374.21 143.99 374.37 143.668C374.532 143.347 374.767 143.09 375.075 142.898C375.387 142.705 375.763 142.609 376.204 142.609C376.655 142.609 377.033 142.705 377.338 142.898C377.642 143.09 377.873 143.347 378.029 143.668C378.184 143.99 378.262 144.343 378.262 144.727V145.264C378.262 145.649 378.183 146.002 378.024 146.323C377.868 146.641 377.636 146.898 377.328 147.094C377.023 147.286 376.648 147.382 376.204 147.382C375.753 147.382 375.374 147.286 375.066 147.094C374.761 146.898 374.529 146.641 374.37 146.323C374.21 146.002 374.131 145.649 374.131 145.264ZM375.294 144.727V145.264C375.294 145.549 375.361 145.808 375.493 146.04C375.629 146.272 375.866 146.388 376.204 146.388C376.535 146.388 376.767 146.272 376.9 146.04C377.036 145.808 377.104 145.549 377.104 145.264V144.727C377.104 144.442 377.039 144.184 376.91 143.952C376.781 143.72 376.545 143.604 376.204 143.604C375.873 143.604 375.637 143.72 375.498 143.952C375.362 144.184 375.294 144.442 375.294 144.727ZM374.603 153L381.603 142.818H382.791L375.791 153H374.603Z" fill="#292D32"/>
</svg>
