<svg width="22" height="22" viewBox="0 0 22 22" fill="none" xmlns="http://www.w3.org/2000/svg">
<g id="vuesax/twotone/chart">
<g id="chart">
<path id="Vector" d="M4.35247 5.32276C3.2317 6.80536 2.56982 8.64978 2.56982 10.6442C2.56982 15.5156 6.52343 19.4692 11.3948 19.4692C16.2662 19.4692 20.2198 15.5156 20.2198 10.6442C20.2198 5.77283 16.2662 1.81923 11.3948 1.81923" stroke="#292D32" stroke-width="1.32375" stroke-linecap="round" stroke-linejoin="round"/>
<path id="Vector_2" opacity="0.34" d="M5.21729 10.6442C5.21729 14.0595 7.97951 16.8217 11.3948 16.8217C14.8101 16.8217 17.5723 14.0595 17.5723 10.6442C17.5723 7.22895 14.8101 4.46672 11.3948 4.46672" stroke="#292D32" stroke-width="1.32375" stroke-linecap="round" stroke-linejoin="round"/>
<path id="Vector_3" opacity="0.34" d="M11.395 14.1742C13.3453 14.1742 14.925 12.5946 14.925 10.6442C14.925 8.6939 13.3453 7.11423 11.395 7.11423" stroke="#292D32" stroke-width="1.32375" stroke-linecap="round" stroke-linejoin="round"/>
</g>
</g>
</svg>
