<svg width="24" height="24" viewBox="0 0 24 24" fill="none" xmlns="http://www.w3.org/2000/svg">
<g id="vuesax/twotone/chart">
<g id="chart">
<path id="Vector" d="M4.02001 5.97007C2.75 7.65008 2 9.74008 2 12.0001C2 17.5201 6.48001 22.0001 12 22.0001C17.52 22.0001 22.0001 17.5201 22.0001 12.0001C22.0001 6.48007 17.52 2.00006 12 2.00006" stroke="#FA14E3" stroke-width="1.5" stroke-linecap="round" stroke-linejoin="round"/>
<path id="Vector_2" opacity="0.34" d="M5 12.0001C5 15.8701 8.13001 19.0001 12 19.0001C15.87 19.0001 19 15.8701 19 12.0001C19 8.13007 15.87 5.00006 12 5.00006" stroke="#FA14E3" stroke-width="1.5" stroke-linecap="round" stroke-linejoin="round"/>
<path id="Vector_3" opacity="0.34" d="M12 16.0001C14.21 16.0001 16 14.2101 16 12.0001C16 9.79007 14.21 8.00006 12 8.00006" stroke="#FA14E3" stroke-width="1.5" stroke-linecap="round" stroke-linejoin="round"/>
</g>
</g>
</svg>
