<svg width="23" height="23" viewBox="0 0 23 23" fill="none" xmlns="http://www.w3.org/2000/svg">
<g id="vuesax/bold/chart-square">
<g id="chart-square">
<path id="Vector" d="M15.5197 2.35872H7.90466C4.59692 2.35872 2.625 4.33065 2.625 7.63839V15.2444C2.625 18.5612 4.59692 20.5331 7.90466 20.5331H15.5106C18.8184 20.5331 20.7903 18.5612 20.7903 15.2535V7.63839C20.7994 4.33065 18.8275 2.35872 15.5197 2.35872ZM9.08599 15.8986C9.08599 16.1531 8.88608 16.353 8.63164 16.353H6.09631C5.84187 16.353 5.64195 16.1531 5.64195 15.8986V11.7004C5.64195 11.1279 6.1054 10.6644 6.67789 10.6644H8.63164C8.88608 10.6644 9.08599 10.8643 9.08599 11.1188V15.8986ZM13.4297 15.8986C13.4297 16.1531 13.2298 16.353 12.9753 16.353H10.44C10.1855 16.353 9.98563 16.1531 9.98563 15.8986V7.57477C9.98563 7.00228 10.4491 6.53883 11.0216 6.53883H12.4028C12.9753 6.53883 13.4388 7.00228 13.4388 7.57477V15.8986H13.4297ZM17.7824 15.8986C17.7824 16.1531 17.5825 16.353 17.3281 16.353H14.7928C14.5383 16.353 14.3384 16.1531 14.3384 15.8986V12.6727C14.3384 12.4183 14.5383 12.2183 14.7928 12.2183H16.7465C17.319 12.2183 17.7824 12.6818 17.7824 13.2543V15.8986Z" fill="#9619F9"/>
</g>
</g>
</svg>
