<svg width="576" height="208" viewBox="0 0 576 208" fill="none" xmlns="http://www.w3.org/2000/svg">
<path opacity="0.5" d="M2.23291 206.393C2.23291 206.393 65.3252 146.018 97.0001 135C128.675 123.982 197.218 130.609 209 127C220.783 123.391 273 69 323.074 70.942C373.149 72.884 443 77 477.148 54.1953C511.296 31.3907 507.67 41.7781 535.335 41.3891C563 41 574.673 1 574.673 1" stroke="#2EB119"/>
<path opacity="0.5" d="M97.0001 135C65.3252 146.018 2.23291 206.393 2.23291 206.393H574.673V1C574.673 1 563 41 535.335 41.3891C507.67 41.7781 511.296 31.3907 477.148 54.1953C443 77 373.149 72.884 323.074 70.942C273 69 220.783 123.391 209 127C197.218 130.609 128.675 123.982 97.0001 135Z" fill="url(#paint0_linear_5431_2736)" fill-opacity="0.15"/>
<path opacity="0.5" d="M1 207.378C1 207.378 58.4576 156.634 92.2288 145.317C126 134 149.709 153.187 190.855 160.093C232 167 319.105 125.945 356.053 101.973C393 78.0001 484 120 519.607 85.2259C555.214 50.4518 574.673 34.9859 574.673 34.9859" stroke="#DF3957"/>
<path opacity="0.15" d="M92.2288 145.317C58.4576 156.634 1 207.378 1 207.378H574.673V34.9859C574.673 34.9859 555.214 50.4518 519.607 85.2259C484 120 393 78.0001 356.053 101.973C319.105 125.945 232 167 190.855 160.093C149.709 153.187 126 134 92.2288 145.317Z" fill="url(#paint1_linear_5431_2736)" fill-opacity="0.5"/>
<defs>
<linearGradient id="paint0_linear_5431_2736" x1="287.221" y1="1" x2="297.358" y2="156.617" gradientUnits="userSpaceOnUse">
<stop stop-color="#054516"/>
<stop offset="1" stop-opacity="0"/>
</linearGradient>
<linearGradient id="paint1_linear_5431_2736" x1="287.836" y1="34.9859" x2="297" y2="199" gradientUnits="userSpaceOnUse">
<stop stop-color="#DF3957"/>
<stop offset="1" stop-opacity="0"/>
</linearGradient>
</defs>
</svg>
