<svg width="617" height="288" viewBox="0 0 617 288" fill="none" xmlns="http://www.w3.org/2000/svg">
<path d="M26.097 282.714C27.3408 282.714 28.3806 282.015 28.3806 280.596V275.786H27.4866V280.596C27.4866 281.441 26.9327 281.83 26.097 281.83C25.4362 281.83 24.9503 281.597 24.7366 281.053L23.9689 281.5C24.3284 282.306 25.135 282.714 26.097 282.714ZM33.6352 277.729V278.565C33.2465 277.972 32.6246 277.603 31.7986 277.603C30.4478 277.603 29.34 278.721 29.34 280.159C29.34 281.597 30.4478 282.714 31.7986 282.714C32.6246 282.714 33.2465 282.345 33.6352 281.752V282.588H34.4806V277.729H33.6352ZM31.9055 281.898C30.9337 281.898 30.1855 281.15 30.1855 280.159C30.1855 279.168 30.9337 278.419 31.9055 278.419C32.8869 278.419 33.6352 279.168 33.6352 280.159C33.6352 281.15 32.8869 281.898 31.9055 281.898ZM38.1811 277.603C37.5009 277.603 36.9664 277.856 36.6069 278.429V277.729H35.7615V282.588H36.6069V280.013C36.6069 278.866 37.2385 278.41 38.0159 278.41C38.7642 278.41 39.2209 278.857 39.2209 279.653V282.588H40.0663V279.605C40.0663 278.361 39.3181 277.603 38.1811 277.603Z" fill="#8E8E8E"/>
<path d="M80.9965 276.641V275.786H77.0804V282.588H77.9841V279.702H80.8702V278.847H77.9841V276.641H80.9965ZM82.5962 280.547H86.6679C86.6873 280.421 86.697 280.295 86.697 280.168C86.697 278.808 85.7447 277.603 84.2774 277.603C82.7614 277.603 81.7314 278.721 81.7314 280.159C81.7314 281.616 82.7712 282.714 84.3357 282.714C85.3074 282.714 86.0459 282.277 86.4735 281.616L85.7544 281.208C85.5115 281.607 85.0256 281.918 84.3551 281.918C83.4514 281.918 82.7614 281.422 82.5962 280.547ZM84.2774 278.4C85.0062 278.4 85.6961 278.847 85.8419 279.809H82.5962C82.7323 278.963 83.3639 278.4 84.2774 278.4ZM90.3509 277.603C89.5249 277.603 88.903 277.972 88.5143 278.565V275.786H87.6688V282.588H88.5143V281.752C88.903 282.345 89.5249 282.714 90.3509 282.714C91.7016 282.714 92.8094 281.597 92.8094 280.159C92.8094 278.721 91.7016 277.603 90.3509 277.603ZM90.244 281.898C89.2625 281.898 88.5143 281.15 88.5143 280.159C88.5143 279.168 89.2625 278.419 90.244 278.419C91.2157 278.419 91.964 279.168 91.964 280.159C91.964 281.15 91.2157 281.898 90.244 281.898Z" fill="#8E8E8E"/>
<path d="M136.197 275.786H135.177L133.02 279.381L130.853 275.786H129.832V282.588H130.736V277.282L132.961 280.975H133.078L135.303 277.273V282.588H136.197V275.786ZM141.587 277.729V278.565C141.199 277.972 140.577 277.603 139.751 277.603C138.4 277.603 137.292 278.721 137.292 280.159C137.292 281.597 138.4 282.714 139.751 282.714C140.577 282.714 141.199 282.345 141.587 281.752V282.588H142.433V277.729H141.587ZM139.858 281.898C138.886 281.898 138.138 281.15 138.138 280.159C138.138 279.168 138.886 278.419 139.858 278.419C140.839 278.419 141.587 279.168 141.587 280.159C141.587 281.15 140.839 281.898 139.858 281.898ZM144.559 278.546V277.729H143.714V282.588H144.559V280.013C144.559 278.866 145.346 278.497 146.075 278.526V277.642C145.463 277.642 144.87 277.865 144.559 278.546Z" fill="#8E8E8E"/>
<path d="M187.064 282.588H188.026L185.49 275.786H184.469L181.933 282.588H182.895L183.449 281.062H186.51L187.064 282.588ZM183.76 280.217L184.975 276.864L186.199 280.217H183.76ZM191.423 277.603C190.597 277.603 189.975 277.972 189.586 278.565V277.729H188.741V284.532H189.586V281.752C189.975 282.345 190.597 282.714 191.423 282.714C192.774 282.714 193.882 281.597 193.882 280.159C193.882 278.721 192.774 277.603 191.423 277.603ZM191.316 281.898C190.335 281.898 189.586 281.15 189.586 280.159C189.586 279.168 190.335 278.419 191.316 278.419C192.288 278.419 193.036 279.168 193.036 280.159C193.036 281.15 192.288 281.898 191.316 281.898ZM195.736 278.546V277.729H194.89V282.588H195.736V280.013C195.736 278.866 196.523 278.497 197.252 278.526V277.642C196.64 277.642 196.047 277.865 195.736 278.546Z" fill="#8E8E8E"/>
<path d="M240.313 275.786H239.293L237.135 279.381L234.968 275.786H233.948V282.588H234.852V277.282L237.077 280.975H237.194L239.419 277.273V282.588H240.313V275.786ZM242.273 280.547H246.344C246.364 280.421 246.374 280.295 246.374 280.168C246.374 278.808 245.421 277.603 243.954 277.603C242.438 277.603 241.408 278.721 241.408 280.159C241.408 281.616 242.448 282.714 244.012 282.714C244.984 282.714 245.723 282.277 246.15 281.616L245.431 281.208C245.188 281.607 244.702 281.918 244.032 281.918C243.128 281.918 242.438 281.422 242.273 280.547ZM243.954 278.4C244.683 278.4 245.373 278.847 245.519 279.809H242.273C242.409 278.963 243.041 278.4 243.954 278.4ZM247.773 276.845C248.084 276.845 248.337 276.592 248.337 276.281C248.337 275.97 248.084 275.708 247.773 275.708C247.452 275.708 247.2 275.97 247.2 276.281C247.2 276.592 247.452 276.845 247.773 276.845ZM247.345 282.588H248.191V277.729H247.345V282.588Z" fill="#8E8E8E"/>
<path d="M287.08 282.714C288.324 282.714 289.364 282.015 289.364 280.596V275.786H288.47V280.596C288.47 281.441 287.916 281.83 287.08 281.83C286.42 281.83 285.934 281.597 285.72 281.053L284.952 281.5C285.312 282.306 286.118 282.714 287.08 282.714ZM293.996 277.729V280.304C293.996 281.451 293.364 281.908 292.586 281.908C291.838 281.908 291.382 281.461 291.382 280.664V277.729H290.536V280.713C290.536 281.956 291.284 282.714 292.421 282.714C293.102 282.714 293.636 282.462 293.996 281.888V282.588H294.841V277.729H293.996ZM298.548 277.603C297.867 277.603 297.333 277.856 296.973 278.429V277.729H296.128V282.588H296.973V280.013C296.973 278.866 297.605 278.41 298.382 278.41C299.131 278.41 299.587 278.857 299.587 279.653V282.588H300.433V279.605C300.433 278.361 299.685 277.603 298.548 277.603Z" fill="#8E8E8E"/>
<path d="M339.138 282.714C340.382 282.714 341.422 282.015 341.422 280.596V275.786H340.528V280.596C340.528 281.441 339.974 281.83 339.138 281.83C338.477 281.83 337.991 281.597 337.778 281.053L337.01 281.5C337.369 282.306 338.176 282.714 339.138 282.714ZM346.053 277.729V280.304C346.053 281.451 345.421 281.908 344.644 281.908C343.896 281.908 343.439 281.461 343.439 280.664V277.729H342.594V280.713C342.594 281.956 343.342 282.714 344.479 282.714C345.159 282.714 345.694 282.462 346.053 281.888V282.588H346.899V277.729H346.053ZM348.186 282.588H349.031V275.494H348.186V282.588Z" fill="#8E8E8E"/>
<path d="M442.293 282.714C443.683 282.714 444.645 281.956 444.645 280.761C444.645 279.449 443.527 279.1 442.342 278.711C441.389 278.41 440.913 278.176 440.913 277.545C440.913 276.923 441.419 276.534 442.147 276.534C442.973 276.534 443.449 277.001 443.692 277.584L444.45 277.146C444.071 276.291 443.265 275.66 442.147 275.66C441.01 275.66 440.01 276.359 440.01 277.584C440.01 278.847 441.059 279.187 442.147 279.537C443.148 279.848 443.751 280.081 443.751 280.781C443.751 281.393 443.275 281.83 442.313 281.83C441.321 281.83 440.738 281.344 440.495 280.596L439.718 281.043C440.078 282.063 441.001 282.714 442.293 282.714ZM446.334 280.547H450.406C450.425 280.421 450.435 280.295 450.435 280.168C450.435 278.808 449.483 277.603 448.015 277.603C446.499 277.603 445.469 278.721 445.469 280.159C445.469 281.616 446.509 282.714 448.073 282.714C449.045 282.714 449.784 282.277 450.211 281.616L449.492 281.208C449.249 281.607 448.763 281.918 448.093 281.918C447.189 281.918 446.499 281.422 446.334 280.547ZM448.015 278.4C448.744 278.4 449.434 278.847 449.58 279.809H446.334C446.47 278.963 447.102 278.4 448.015 278.4ZM454.089 277.603C453.263 277.603 452.641 277.972 452.252 278.565V277.729H451.407V284.532H452.252V281.752C452.641 282.345 453.263 282.714 454.089 282.714C455.439 282.714 456.547 281.597 456.547 280.159C456.547 278.721 455.439 277.603 454.089 277.603ZM453.982 281.898C453 281.898 452.252 281.15 452.252 280.159C452.252 279.168 453 278.419 453.982 278.419C454.954 278.419 455.702 279.168 455.702 280.159C455.702 281.15 454.954 281.898 453.982 281.898Z" fill="#8E8E8E"/>
<path d="M496.701 282.714C498.674 282.714 500.229 281.14 500.229 279.187C500.229 277.224 498.674 275.66 496.701 275.66C494.729 275.66 493.184 277.224 493.184 279.187C493.184 281.14 494.729 282.714 496.701 282.714ZM496.701 281.83C495.215 281.83 494.078 280.674 494.078 279.187C494.078 277.69 495.215 276.534 496.701 276.534C498.188 276.534 499.325 277.69 499.325 279.187C499.325 280.674 498.188 281.83 496.701 281.83ZM503.511 282.714C504.464 282.714 505.29 282.209 505.698 281.451L504.979 281.033C504.707 281.539 504.172 281.879 503.511 281.879C502.54 281.879 501.801 281.13 501.801 280.159C501.801 279.177 502.54 278.429 503.511 278.429C504.163 278.429 504.707 278.769 504.95 279.284L505.659 278.876C505.29 278.108 504.474 277.603 503.511 277.603C502.044 277.603 500.956 278.721 500.956 280.159C500.956 281.597 502.044 282.714 503.511 282.714ZM509.176 278.546V277.729H507.883V276.369L507.038 276.622V277.729H506.076V278.546H507.038V281.179C507.038 282.394 507.718 282.782 509.176 282.588V281.83C508.311 281.869 507.883 281.918 507.883 281.179V278.546H509.176Z" fill="#8E8E8E"/>
<path d="M390.233 283.588H391.69L389.3 276.786H387.638L385.257 283.588H386.705L387.113 282.364H389.824L390.233 283.588ZM387.541 281.11L388.474 278.331L389.407 281.11H387.541ZM395.452 278.729V281.353C395.452 282.198 394.995 282.558 394.383 282.558C393.819 282.558 393.421 282.218 393.421 281.557V278.729H392.167V281.713C392.167 283.005 392.974 283.724 394.004 283.724C394.655 283.724 395.16 283.481 395.452 283.044V283.588H396.705V278.729H395.452ZM401.575 278.729V279.332C401.235 278.875 400.71 278.593 400.02 278.593C398.64 278.593 397.601 279.721 397.601 281.081C397.601 282.451 398.64 283.569 400.02 283.569C400.71 283.569 401.235 283.287 401.575 282.83V283.355C401.575 284.123 401.089 284.55 400.302 284.55C399.554 284.55 399.233 284.249 399.029 283.87L397.96 284.482C398.388 285.269 399.223 285.668 400.263 285.668C401.546 285.668 402.799 284.949 402.799 283.355V278.729H401.575ZM400.215 282.412C399.428 282.412 398.854 281.858 398.854 281.081C398.854 280.313 399.428 279.759 400.215 279.759C401.002 279.759 401.575 280.313 401.575 281.081C401.575 281.858 401.002 282.412 400.215 282.412Z" fill="#8E8E8E"/>
<path d="M550.522 275.786V280.858L547.024 275.786H546.295V282.588H547.199V277.506L550.697 282.588H551.426V275.786H550.522ZM555.077 282.714C556.496 282.714 557.643 281.597 557.643 280.159C557.643 278.721 556.496 277.603 555.077 277.603C553.658 277.603 552.522 278.721 552.522 280.159C552.522 281.597 553.658 282.714 555.077 282.714ZM555.077 281.888C554.115 281.888 553.367 281.14 553.367 280.159C553.367 279.177 554.115 278.429 555.077 278.429C556.049 278.429 556.797 279.177 556.797 280.159C556.797 281.14 556.049 281.888 555.077 281.888ZM561.851 277.729L560.325 281.684L558.799 277.729H557.886L559.829 282.588H560.821L562.764 277.729H561.851Z" fill="#8E8E8E"/>
<path d="M601.7 275.786H599.047V282.588H601.7C603.576 282.588 604.926 281.072 604.926 279.187C604.926 277.302 603.576 275.786 601.7 275.786ZM601.7 281.733H599.951V276.641H601.7C603.099 276.641 604.061 277.749 604.061 279.187C604.061 280.625 603.099 281.733 601.7 281.733ZM606.527 280.547H610.599C610.618 280.421 610.628 280.295 610.628 280.168C610.628 278.808 609.676 277.603 608.209 277.603C606.693 277.603 605.663 278.721 605.663 280.159C605.663 281.616 606.702 282.714 608.267 282.714C609.239 282.714 609.977 282.277 610.405 281.616L609.686 281.208C609.443 281.607 608.957 281.918 608.286 281.918C607.383 281.918 606.693 281.422 606.527 280.547ZM608.209 278.4C608.937 278.4 609.627 278.847 609.773 279.809H606.527C606.663 278.963 607.295 278.4 608.209 278.4ZM613.874 282.714C614.826 282.714 615.652 282.209 616.061 281.451L615.341 281.033C615.069 281.539 614.535 281.879 613.874 281.879C612.902 281.879 612.164 281.13 612.164 280.159C612.164 279.177 612.902 278.429 613.874 278.429C614.525 278.429 615.069 278.769 615.312 279.284L616.022 278.876C615.652 278.108 614.836 277.603 613.874 277.603C612.407 277.603 611.318 278.721 611.318 280.159C611.318 281.597 612.407 282.714 613.874 282.714Z" fill="#8E8E8E"/>
<path d="M0.299853 12H4.06468V11.2504H1.4243L2.91524 9.76776C3.48996 9.19304 3.9564 8.56835 3.9564 7.8437C3.9564 6.69426 3.04851 6.06124 2.14062 6.06124C1.38266 6.06124 0.67467 6.43606 0.299853 7.21068L0.949535 7.59382C1.19941 7.06908 1.61588 6.81087 2.14895 6.81087C2.69035 6.81087 3.18178 7.16903 3.18178 7.85203C3.18178 8.34346 2.81529 8.8099 2.35718 9.268L0.299853 11.367V12ZM6.93476 12.1083C8.38405 12.1083 9.18365 10.8839 9.18365 9.08476C9.18365 7.28564 8.38405 6.06124 6.93476 6.06124C5.49379 6.06124 4.68586 7.28564 4.68586 9.08476C4.68586 10.8839 5.49379 12.1083 6.93476 12.1083ZM6.93476 11.3503C5.99355 11.3503 5.46048 10.5341 5.46048 9.08476C5.46048 7.63547 5.99355 6.81087 6.93476 6.81087C7.87596 6.81087 8.41736 7.63547 8.41736 9.08476C8.41736 10.5341 7.87596 11.3503 6.93476 11.3503ZM12.1812 12.1083C13.6305 12.1083 14.4301 10.8839 14.4301 9.08476C14.4301 7.28564 13.6305 6.06124 12.1812 6.06124C10.7402 6.06124 9.93231 7.28564 9.93231 9.08476C9.93231 10.8839 10.7402 12.1083 12.1812 12.1083ZM12.1812 11.3503C11.24 11.3503 10.7069 10.5341 10.7069 9.08476C10.7069 7.63547 11.24 6.81087 12.1812 6.81087C13.1224 6.81087 13.6638 7.63547 13.6638 9.08476C13.6638 10.5341 13.1224 11.3503 12.1812 11.3503ZM18.877 12L16.8196 9.85105L18.8103 7.83537H17.8774L16.0783 9.67614V6.16952H15.3537V12H16.0783V10.026L17.9774 12H18.877Z" fill="#8E8E8E"/>
<path d="M1.64919 66.195L0.11661 66.7281L0.308182 67.3944L1.54924 67.028V72.0255H2.31553V66.195H1.64919ZM5.21782 68.4689H4.36824L4.46819 66.9197H6.95864V66.195H3.76853L3.55197 69.2186H5.20116C5.89249 69.2186 6.41724 69.6017 6.41724 70.3014C6.41724 70.9927 5.89249 71.3758 5.18451 71.3758C4.55148 71.3758 4.07671 71.0843 3.91846 70.5096L3.26045 70.8844C3.54364 71.7173 4.32659 72.1338 5.18451 72.1338C6.23399 72.1338 7.18353 71.4841 7.18353 70.3014C7.18353 69.1103 6.25898 68.4689 5.21782 68.4689ZM10.042 72.1338C11.4912 72.1338 12.2909 70.9094 12.2909 69.1103C12.2909 67.3112 11.4912 66.0868 10.042 66.0868C8.601 66.0868 7.79306 67.3112 7.79306 69.1103C7.79306 70.9094 8.601 72.1338 10.042 72.1338ZM10.042 71.3758C9.10075 71.3758 8.56768 70.5596 8.56768 69.1103C8.56768 67.661 9.10075 66.8364 10.042 66.8364C10.9832 66.8364 11.5246 67.661 11.5246 69.1103C11.5246 70.5596 10.9832 71.3758 10.042 71.3758ZM16.7377 72.0255L14.6804 69.8766L16.6711 67.8609H15.7382L13.9391 69.7017V66.195H13.2144V72.0255H13.9391V70.0515L15.8381 72.0255H16.7377Z" fill="#8E8E8E"/>
<path d="M1.64919 126.221L0.11661 126.754L0.308182 127.42L1.54924 127.053V132.051H2.31553V126.221H1.64919ZM5.59264 132.159C7.04193 132.159 7.84154 130.935 7.84154 129.136C7.84154 127.337 7.04193 126.112 5.59264 126.112C4.15168 126.112 3.34374 127.337 3.34374 129.136C3.34374 130.935 4.15168 132.159 5.59264 132.159ZM5.59264 131.401C4.65143 131.401 4.11836 130.585 4.11836 129.136C4.11836 127.686 4.65143 126.862 5.59264 126.862C6.53384 126.862 7.07525 127.686 7.07525 129.136C7.07525 130.585 6.53384 131.401 5.59264 131.401ZM10.8391 132.159C12.2884 132.159 13.088 130.935 13.088 129.136C13.088 127.337 12.2884 126.112 10.8391 126.112C9.39813 126.112 8.5902 127.337 8.5902 129.136C8.5902 130.935 9.39813 132.159 10.8391 132.159ZM10.8391 131.401C9.89789 131.401 9.36482 130.585 9.36482 129.136C9.36482 127.686 9.89789 126.862 10.8391 126.862C11.7803 126.862 12.3217 127.686 12.3217 129.136C12.3217 130.585 11.7803 131.401 10.8391 131.401ZM17.5348 132.051L15.4775 129.902L17.4682 127.886H16.5353L14.7362 129.727V126.221H14.0116V132.051H14.7362V130.077L16.6353 132.051H17.5348Z" fill="#8E8E8E"/>
<path d="M2.2489 188.52H1.39931L1.49927 186.971H3.98971V186.246H0.799608L0.583048 189.27H2.23224C2.92357 189.27 3.44831 189.653 3.44831 190.352C3.44831 191.044 2.92357 191.427 2.21558 191.427C1.58256 191.427 1.10779 191.135 0.949535 190.561L0.291524 190.935C0.574719 191.768 1.35767 192.185 2.21558 192.185C3.26507 192.185 4.2146 191.535 4.2146 190.352C4.2146 189.161 3.29006 188.52 2.2489 188.52ZM7.07303 192.185C8.52233 192.185 9.32193 190.96 9.32193 189.161C9.32193 187.362 8.52233 186.138 7.07303 186.138C5.63207 186.138 4.82414 187.362 4.82414 189.161C4.82414 190.96 5.63207 192.185 7.07303 192.185ZM7.07303 191.427C6.13183 191.427 5.59876 190.611 5.59876 189.161C5.59876 187.712 6.13183 186.887 7.07303 186.887C8.01424 186.887 8.55564 187.712 8.55564 189.161C8.55564 190.611 8.01424 191.427 7.07303 191.427ZM13.7688 192.077L11.7115 189.928L13.7021 187.912H12.7693L10.9702 189.753V186.246H10.2455V192.077H10.9702V190.103L12.8692 192.077H13.7688Z" fill="#8E8E8E"/>
<path d="M2.62372 252.21C4.07301 252.21 4.87261 250.986 4.87261 249.187C4.87261 247.388 4.07301 246.163 2.62372 246.163C1.18275 246.163 0.374816 247.388 0.374816 249.187C0.374816 250.986 1.18275 252.21 2.62372 252.21ZM2.62372 251.452C1.68251 251.452 1.14944 250.636 1.14944 249.187C1.14944 247.738 1.68251 246.913 2.62372 246.913C3.56492 246.913 4.10632 247.738 4.10632 249.187C4.10632 250.636 3.56492 251.452 2.62372 251.452Z" fill="#8E8E8E"/>
</svg>
