<svg width="26" height="26" viewBox="0 0 26 26" fill="none" xmlns="http://www.w3.org/2000/svg">
<g id="mdi:medal">
<path id="Vector" d="M21.799 2.78853H5.06152V4.88072L11.1393 9.44169C9.2948 10.0499 7.76723 11.3656 6.89236 13.0997C6.0175 14.8337 5.86693 16.8442 6.47375 18.6892C6.77397 19.6031 7.25144 20.449 7.87885 21.1782C8.50625 21.9075 9.27128 22.5059 10.1302 22.9392C10.9891 23.3726 11.925 23.6323 12.8843 23.7036C13.8437 23.7749 14.8077 23.6564 15.7212 23.3548C17.1863 22.8732 18.4619 21.9415 19.3662 20.6923C20.2705 19.4431 20.7574 17.9404 20.7574 16.3982C20.7574 14.8561 20.2705 13.3533 19.3662 12.1042C18.4619 10.855 17.1863 9.92323 15.7212 9.44169L21.799 4.88072V2.78853ZM16.5058 21.0952L13.4303 19.2959L10.3548 21.0952L11.1707 17.6117L8.46133 15.2684L12.0285 14.9651L13.4303 11.6803L14.8321 14.9651L18.3992 15.2684L15.6898 17.6117L16.5058 21.0952Z" fill="white"/>
</g>
</svg>
