<svg width="20" height="21" viewBox="0 0 20 21" fill="none" xmlns="http://www.w3.org/2000/svg">
<g id="vuesax/outline/send-2">
<g id="send-2">
<path id="Vector" d="M11.9975 18.2204C11.0646 18.2204 9.74427 17.553 8.70067 14.3609L8.13143 12.6242L6.42372 12.0452C3.29292 10.9839 2.63672 9.6411 2.63672 8.69231C2.63672 7.75156 3.29292 6.40075 6.42372 5.33135L13.136 3.05586C14.8121 2.48498 16.2114 2.65383 17.0732 3.52221C17.935 4.3906 18.101 5.82182 17.5396 7.52643L15.3022 14.3529C14.2507 17.553 12.9304 18.2204 11.9975 18.2204ZM6.79531 6.48115C4.59742 7.22893 3.81472 8.11339 3.81472 8.69231C3.81472 9.27124 4.59742 10.1557 6.79531 10.8954L8.78764 11.5708C8.96157 11.6271 9.10388 11.7719 9.15922 11.9488L9.82333 13.975C10.5507 16.2103 11.4283 17.0063 11.9975 17.0063C12.5667 17.0063 13.4364 16.2103 14.1717 13.975L16.4091 7.14852C16.8123 5.91027 16.7411 4.89715 16.2272 4.37452C15.7133 3.85188 14.7172 3.78755 13.5076 4.19762L6.79531 6.48115Z" fill="#8ECB3F"/>
<path id="Vector_2" d="M8.74772 12.4071C8.5975 12.4071 8.44729 12.3508 8.3287 12.2302C8.09942 11.997 8.09942 11.611 8.3287 11.3779L11.1591 8.49129C11.3883 8.25811 11.7678 8.25811 11.9971 8.49129C12.2264 8.72447 12.2264 9.11041 11.9971 9.34359L9.16674 12.2302C9.05605 12.3508 8.89793 12.4071 8.74772 12.4071Z" fill="#8ECB3F"/>
</g>
</g>
</svg>
