<svg width="22" height="22" viewBox="0 0 22 22" fill="none" xmlns="http://www.w3.org/2000/svg">
<g id="vuesax/outline/setting-2">
<g id="setting-2">
<path id="Vector" d="M11.3953 14.0197C9.56854 14.0197 8.08594 12.5371 8.08594 10.7103C8.08594 8.88351 9.56854 7.40091 11.3953 7.40091C13.2221 7.40091 14.7047 8.88351 14.7047 10.7103C14.7047 12.5371 13.2221 14.0197 11.3953 14.0197ZM11.3953 8.72466C10.301 8.72466 9.40969 9.61598 9.40969 10.7103C9.40969 11.8046 10.301 12.6959 11.3953 12.6959C12.4896 12.6959 13.3809 11.8046 13.3809 10.7103C13.3809 9.61598 12.4896 8.72466 11.3953 8.72466Z" fill="#292D32"/>
<path id="Vector_2" d="M14.2279 19.703C14.0426 19.703 13.8573 19.6765 13.6719 19.6324C13.1248 19.4824 12.6659 19.1382 12.3747 18.6528L12.2688 18.4763C11.7481 17.5762 11.0333 17.5762 10.5126 18.4763L10.4155 18.644C10.1243 19.1382 9.66538 19.4912 9.11823 19.6324C8.56225 19.7824 7.98863 19.703 7.50325 19.4118L5.98535 18.5381C5.44703 18.2292 5.05873 17.7262 4.89105 17.1173C4.7322 16.5084 4.81163 15.8818 5.1205 15.3435C5.37643 14.8934 5.44703 14.4874 5.297 14.2315C5.14698 13.9756 4.7675 13.8256 4.24683 13.8256C2.95838 13.8256 1.9082 12.7754 1.9082 11.4869V9.93373C1.9082 8.64528 2.95838 7.5951 4.24683 7.5951C4.7675 7.5951 5.14698 7.44508 5.297 7.18915C5.44703 6.93323 5.38525 6.52728 5.1205 6.0772C4.81163 5.53888 4.7322 4.90348 4.89105 4.30338C5.0499 3.69445 5.4382 3.19143 5.98535 2.88255L7.51208 2.00888C8.5093 1.4176 9.82423 1.76178 10.4243 2.77665L10.5302 2.95315C11.0509 3.8533 11.7657 3.8533 12.2864 2.95315L12.3835 2.78548C12.9836 1.76178 14.2985 1.4176 15.3046 2.0177L16.8225 2.89138C17.3608 3.20025 17.7491 3.70328 17.9168 4.3122C18.0756 4.92113 17.9962 5.5477 17.6873 6.08603C17.4314 6.5361 17.3608 6.94205 17.5108 7.19798C17.6608 7.4539 18.0403 7.60393 18.561 7.60393C19.8494 7.60393 20.8996 8.6541 20.8996 9.94255V11.4958C20.8996 12.7842 19.8494 13.8344 18.561 13.8344C18.0403 13.8344 17.6608 13.9844 17.5108 14.2403C17.3608 14.4963 17.4226 14.9022 17.6873 15.3523C17.9962 15.8906 18.0844 16.526 17.9168 17.1261C17.7579 17.735 17.3696 18.2381 16.8225 18.5469L15.2957 19.4206C14.9604 19.6059 14.5986 19.703 14.2279 19.703ZM11.3951 16.4378C12.1805 16.4378 12.913 16.932 13.416 17.8056L13.5131 17.9733C13.619 18.1586 13.7955 18.291 14.0073 18.344C14.2191 18.3969 14.4309 18.3704 14.6074 18.2645L16.1341 17.382C16.3636 17.2497 16.5401 17.029 16.6107 16.7643C16.6813 16.4995 16.646 16.226 16.5136 15.9965C16.0106 15.1316 15.9488 14.2403 16.3371 13.5608C16.7254 12.8813 17.5285 12.493 18.5345 12.493C19.0993 12.493 19.5494 12.0429 19.5494 11.4781V9.9249C19.5494 9.36893 19.0993 8.91003 18.5345 8.91003C17.5285 8.91003 16.7254 8.52173 16.3371 7.8422C15.9488 7.16268 16.0106 6.27135 16.5136 5.4065C16.646 5.17705 16.6813 4.90348 16.6107 4.63873C16.5401 4.37398 16.3724 4.16218 16.1429 4.02098L14.6162 3.1473C14.2367 2.91785 13.7337 3.05023 13.5043 3.43853L13.4072 3.6062C12.9042 4.47988 12.1717 4.97408 11.3863 4.97408C10.6008 4.97408 9.86835 4.47988 9.36533 3.6062L9.26825 3.4297C9.04763 3.05905 8.55343 2.92668 8.17395 3.1473L6.64723 4.0298C6.41778 4.16218 6.24128 4.3828 6.17068 4.64755C6.10008 4.9123 6.13538 5.18588 6.26775 5.41533C6.77078 6.28018 6.83255 7.1715 6.44425 7.85103C6.05595 8.53055 5.25288 8.91885 4.24683 8.91885C3.68203 8.91885 3.23195 9.36893 3.23195 9.93373V11.4869C3.23195 12.0429 3.68203 12.5018 4.24683 12.5018C5.25288 12.5018 6.05595 12.8901 6.44425 13.5696C6.83255 14.2492 6.77078 15.1405 6.26775 16.0053C6.13538 16.2348 6.10008 16.5084 6.17068 16.7731C6.24128 17.0379 6.40895 17.2497 6.6384 17.3909L8.16513 18.2645C8.35045 18.3792 8.57108 18.4057 8.77405 18.3528C8.98585 18.2998 9.16235 18.1586 9.27708 17.9733L9.37415 17.8056C9.87718 16.9408 10.6097 16.4378 11.3951 16.4378Z" fill="#292D32"/>
</g>
</g>
</svg>
