<svg width="24" height="25" viewBox="0 0 24 25" fill="none" xmlns="http://www.w3.org/2000/svg">
<g id="vuesax/outline/send-2">
<g id="send-2">
<path id="Vector" d="M14.2199 21.6913C13.0399 21.6913 11.3699 20.8589 10.0499 16.8777L9.32987 14.7116L7.16988 13.9895C3.20988 12.6658 2.37988 10.9911 2.37988 9.80772C2.37988 8.63441 3.20988 6.94965 7.16988 5.61588L15.6599 2.77787C17.7799 2.06585 19.5499 2.27645 20.6399 3.35951C21.7299 4.44257 21.9399 6.22761 21.2299 8.35361L18.3999 16.8677C17.0699 20.8589 15.3999 21.6913 14.2199 21.6913ZM7.63988 7.04993C4.85988 7.98257 3.86988 9.08568 3.86988 9.80772C3.86988 10.5298 4.85988 11.6329 7.63988 12.5555L10.1599 13.3979C10.3799 13.4681 10.5599 13.6486 10.6299 13.8692L11.4699 16.3963C12.3899 19.1842 13.4999 20.177 14.2199 20.177C14.9399 20.177 16.0399 19.1842 16.9699 16.3963L19.7999 7.88228C20.3099 6.33792 20.2199 5.07435 19.5699 4.42251C18.9199 3.77067 17.6599 3.69044 16.1299 4.20189L7.63988 7.04993Z" fill="#DF3957"/>
<path id="Vector_2" d="M10.1103 14.4408C9.92029 14.4408 9.73029 14.3706 9.58029 14.2202C9.29029 13.9294 9.29029 13.448 9.58029 13.1572L13.1603 9.55701C13.4503 9.26619 13.9303 9.26619 14.2203 9.55701C14.5103 9.84784 14.5103 10.3292 14.2203 10.62L10.6403 14.2202C10.5003 14.3706 10.3003 14.4408 10.1103 14.4408Z" fill="#DF3957"/>
</g>
</g>
</svg>
